<svg width="46" height="22" viewBox="0 0 46 22" fill="none" xmlns="http://www.w3.org/2000/svg">
<g clip-path="url(#clip0_158_1020)">
<mask id="mask0_158_1020" style="mask-type:luminance" maskUnits="userSpaceOnUse" x="-189" y="-49" width="427" height="409">
<path d="M-188.756 359.484H237.334V-48.2259H-188.756V359.484Z" fill="white"/>
</mask>
<g mask="url(#mask0_158_1020)">
<path d="M23.6961 18.5173C22.8264 18.4618 21.8236 18.3159 21.0326 18.0968C20.8845 18.0557 20.271 17.8399 20.115 17.7714C17.3614 16.5509 15.4431 13.8866 15.4431 10.7956C15.4431 6.55604 19.0477 3.10272 23.4813 3.10272C27.8755 3.10272 31.4559 6.49713 31.5174 10.6888H34.4214C34.3598 4.96568 29.4775 0.327471 23.4813 0.327471C17.4494 0.327471 12.5398 5.02252 12.5398 10.7956C12.5398 14.7756 14.879 18.2372 18.304 20.0056C18.9225 20.3186 19.8101 20.6412 20.1114 20.7295C21.0877 21.0076 22.286 21.1925 23.3525 21.2699C23.7147 21.296 24.9795 21.3097 25.3481 21.311H45.3457V18.5433H25.3817C25.1162 18.5433 23.9559 18.5337 23.6961 18.5173ZM25.3817 14.1715C25.1706 14.1715 24.0661 14.1647 23.8621 14.1483C23.5164 14.1202 23.0153 14.0709 22.6932 14.0003C22.3296 13.9072 21.9882 13.7839 21.8343 13.7031C20.7556 13.1449 20.0205 12.0531 20.0205 10.7956C20.0205 8.96623 21.5687 7.48272 23.4813 7.48272C25.3538 7.48272 26.8763 8.90801 26.9371 10.6888H29.7273C29.6686 7.43546 26.8971 4.81363 23.4813 4.81363C20.0277 4.81363 17.2282 7.49162 17.2282 10.7956C17.2282 13.1257 18.624 15.1379 20.6568 16.1235C20.9696 16.2989 21.558 16.4824 21.7255 16.5242C22.2996 16.6687 23.0705 16.7673 23.6961 16.8112C23.9273 16.8297 25.0596 16.8379 25.2987 16.8393V16.8434H45.345V14.1715H25.3817ZM10.7504 21.3008H7.82709V3.10889H3.55529V0.311033H10.7504V21.3008ZM0.345703 4.50679V7.19711H3.55529V21.3008H6.36403V4.50679H0.345703Z" fill="#D91920"/>
<path d="M40.1801 0.506383C39.1272 0.506383 38.2539 1.30978 38.2539 2.31797C38.2539 3.32615 39.1272 4.16174 40.1801 4.16174C41.2652 4.16174 42.1048 3.32615 42.1048 2.31797C42.1048 1.30978 41.2652 0.506383 40.1801 0.506383ZM40.1801 3.86449C39.3104 3.86449 38.561 3.2104 38.561 2.31797C38.561 1.47074 39.3104 0.800209 40.1801 0.800209C41.049 0.800209 41.7949 1.47074 41.7949 2.31797C41.7949 3.2104 41.049 3.86449 40.1801 3.86449Z" fill="#D91920"/>
<path d="M40.9136 2.8145C40.9136 2.61108 40.8821 2.42204 40.6388 2.34739C40.9437 2.24602 40.9737 2.05493 40.9737 1.93918C40.9737 1.47139 40.53 1.4118 40.3474 1.4118H39.5078V3.22339H39.8578V2.48026H40.1334C40.53 2.48026 40.5629 2.65491 40.5629 2.8145C40.5629 3.12339 40.5629 3.18161 40.6388 3.22339H40.9895C40.9136 3.1501 40.9437 3.09326 40.9136 2.8145ZM40.2708 2.21589H39.8578V1.64536H40.2114C40.4562 1.64536 40.6223 1.71933 40.6223 1.93918C40.6223 2.05493 40.5629 2.21589 40.2708 2.21589Z" fill="#D91920"/>
</g>
</g>
<defs>
<clipPath id="clip0_158_1020">
<rect width="45" height="21" fill="white" transform="translate(0.345703 0.311035)"/>
</clipPath>
</defs>
</svg>
