<svg width="117" height="24" viewBox="0 0 117 24" fill="none" xmlns="http://www.w3.org/2000/svg">
<path d="M18.4284 15.1847C18.7789 15.1847 18.9542 15.6333 18.9542 16.5304C18.9156 17.1683 18.7107 17.7852 18.3602 18.3198C17.9332 19.0338 17.396 19.6758 16.7684 20.2211C16.1153 20.7971 15.3823 21.2748 14.5923 21.6401C13.8633 21.9944 13.0656 22.1843 12.2555 22.1961C11.2234 22.1961 10.5322 21.2892 10.1817 19.4752C9.67687 20.3014 8.99104 21.0016 8.17598 21.5229C7.18207 22.1054 6.04009 22.3853 4.88995 22.3276C4.27817 22.3541 3.66744 22.2528 3.09682 22.0303C2.52605 21.8078 2.00776 21.4692 1.57467 21.0354C1.16872 20.6288 0.850387 20.1423 0.639421 19.6073C0.428456 19.0723 0.329231 18.4999 0.34793 17.9249C0.34793 14.6093 1.44815 11.996 3.64859 10.0844C4.40695 9.38972 5.29545 8.85274 6.26281 8.50485C7.09039 8.24804 7.9522 8.12017 8.81868 8.12424C9.57809 8.09981 10.3316 8.26749 11.0093 8.61176C11.282 8.04657 11.5934 7.76367 11.944 7.76367C12.3113 7.77589 12.6728 7.86094 13.0069 8.01385C13.3412 8.16721 13.6418 8.38511 13.8912 8.65579C14.4026 9.064 14.7316 9.6583 14.8065 10.309C14.4559 11.1034 14.0559 11.8752 13.6089 12.62C13.429 13.8696 13.3509 15.1315 13.3752 16.394C13.3752 18.019 13.5797 18.8318 13.9886 18.8318C14.4948 18.8318 15.7217 17.8175 17.669 15.7893C18.0194 15.3862 18.2726 15.1847 18.4284 15.1847ZM4.64174 16.9592C4.64174 18.4609 5.19667 19.2119 6.30654 19.2119C7.49437 19.1925 8.47773 18.5587 9.25674 17.3105C9.55623 16.8195 9.78243 16.2871 9.92855 15.7305C9.89643 13.8414 10.0926 11.9555 10.5127 10.1136C8.93585 10.4256 7.49588 11.2236 6.39431 12.3954C5.81313 13.001 5.35878 13.7167 5.05779 14.5003C4.7568 15.2839 4.61535 16.1203 4.64174 16.9592Z" fill="#7A8CA7"/>
<path d="M31.3096 13.2346C31.3096 12.5846 30.9397 12.2597 30.1997 12.2597C29.6933 12.2597 29.1286 12.7471 28.5055 13.7222C27.8856 14.6986 27.4317 15.7712 27.1619 16.8966V16.955C27.1666 17.6485 27.2699 18.3381 27.4686 19.003C27.6283 19.4762 27.7313 19.9678 27.7752 20.4654C27.7752 21.1155 26.9476 21.7657 25.2925 22.4158C25.0791 22.5048 24.8515 22.5544 24.6207 22.5621C24.3916 22.5683 24.1671 22.4962 23.984 22.3581C23.8009 22.2199 23.6702 22.024 23.6129 21.8015C23.4045 21.1345 23.3107 20.4373 23.3356 19.739C23.3356 18.871 23.3598 18.0582 23.4084 17.3012C23.4571 16.5436 23.5058 15.8321 23.5545 15.1656C23.6032 14.5155 23.6519 13.9401 23.7006 13.4393C23.7492 12.9391 23.7736 12.5343 23.7736 12.2255C23.7736 11.5753 23.4719 11.2505 22.8681 11.2505C22.2645 11.2505 21.5634 11.9574 20.7651 13.3713C19.9667 14.785 19.5674 15.9068 19.5674 16.7354C19.5603 17.5119 19.6635 18.2849 19.8742 19.0322C20.034 19.5059 20.137 19.9969 20.1809 20.4946C20.1809 21.1447 19.3533 21.7948 17.6982 22.4449C17.4848 22.534 17.2572 22.5836 17.0263 22.5913C16.7973 22.5969 16.5733 22.5242 16.3904 22.3861C16.2077 22.2486 16.0766 22.0527 16.0186 21.8307C15.8004 21.0705 15.7066 20.2802 15.7411 19.4905C15.6943 17.4858 15.8019 15.4812 16.0624 13.493C16.3625 11.6582 17.0389 9.90474 18.0486 8.34413C18.1546 8.12306 18.3146 7.93185 18.5137 7.78904C18.7127 7.64594 18.9445 7.55485 19.1877 7.52515C19.8369 7.52515 20.4308 8.05204 20.9696 9.10476C21.1105 9.34664 21.228 9.60133 21.32 9.86538C21.6938 9.33382 22.1875 8.89801 22.761 8.59325C23.3344 8.28788 23.9715 8.12261 24.6207 8.1104C25.4466 8.10618 26.2457 8.40234 26.8698 8.94416C27.1807 9.19523 27.4303 9.51387 27.5991 9.87654C27.7678 10.2392 27.8515 10.6357 27.8434 11.0357V11.3574C28.3432 10.6705 28.9979 10.1109 29.754 9.72468C30.5102 9.33849 31.3467 9.13597 32.1955 9.13431C32.6292 9.10325 33.0647 9.15995 33.4761 9.30064C33.8875 9.44134 34.2666 9.66331 34.5908 9.9533C34.8574 10.2163 35.0675 10.5309 35.2082 10.8781C35.3489 11.225 35.417 11.5973 35.4087 11.9717C35.4149 12.697 35.3561 13.4219 35.2333 14.137C35.1165 14.7871 34.9851 15.3912 34.839 15.9504C34.6929 16.5094 34.5615 17.0117 34.4447 17.4573C34.345 17.7902 34.2862 18.1339 34.2694 18.4812C34.2694 18.7247 34.3474 18.847 34.503 18.847C34.9159 18.7897 35.2971 18.5938 35.5838 18.291C36.0124 17.9201 36.4406 17.5155 36.869 17.0767L38.052 15.8627C38.4254 15.4823 38.677 15.2924 38.8065 15.2924C39.0791 15.2924 39.2156 15.6172 39.2156 16.2675C39.2156 17.6327 38.5292 18.9591 37.1563 20.246C36.0059 21.4439 34.4335 22.1438 32.7749 22.1964C31.3729 22.1964 30.6719 20.9191 30.6719 18.3642C30.7005 17.469 30.808 16.578 30.9932 15.7017C31.1666 14.89 31.2725 14.0643 31.3096 13.2346Z" fill="#7A8CA7"/>
<path d="M47.3729 19.6218C46.7171 20.4663 45.8782 21.1506 44.9191 21.6218C43.96 22.0934 42.9062 22.3399 41.8377 22.3425C39.6863 22.3425 38.0747 21.7916 37.0037 20.6893C36.4752 20.1481 36.0624 19.504 35.7913 18.7977C35.52 18.0908 35.3959 17.3359 35.4264 16.5793C35.3646 14.3732 36.1486 12.2273 37.617 10.5823C38.3389 9.75725 39.2351 9.10354 40.2403 8.66879C41.246 8.23344 42.3355 8.02775 43.4295 8.06621C44.3242 8.03348 45.2163 8.17251 46.0587 8.47592C47.2076 8.94384 47.782 9.38281 47.782 9.79193C47.782 10.1173 46.9784 10.2801 45.3722 10.2801C44.6219 10.2662 43.8771 10.4069 43.1836 10.6939C42.4903 10.9808 41.8633 11.4074 41.341 11.9476C40.8044 12.4969 40.384 13.1496 40.1058 13.8657C39.827 14.5823 39.6961 15.3476 39.72 16.1158C39.695 16.923 39.9713 17.7108 40.4939 18.3245C40.7717 18.629 41.1145 18.8663 41.496 19.0197C41.8777 19.1736 42.2889 19.2391 42.6997 19.2121C43.5227 19.2423 44.3375 19.0396 45.051 18.6269C44.3819 18.1885 43.8388 17.5829 43.4751 16.8698C43.1113 16.1562 42.9396 15.3609 42.9768 14.5609C42.9635 13.6079 43.3258 12.6881 43.9846 12.0007C44.3165 11.6243 44.7262 11.3249 45.1851 11.123C45.6438 10.921 46.1416 10.8211 46.6429 10.8309C47.7232 10.8309 48.4977 11.1281 48.9647 11.723C49.4542 12.3967 49.7012 13.2165 49.6659 14.0488C49.6464 15.0836 49.4178 16.1036 48.9942 17.0473H49.1693C49.9897 17.0406 50.7774 16.7241 51.3744 16.1598C51.6082 15.9261 51.8081 15.721 51.9734 15.5455C52.0327 15.4713 52.1064 15.4099 52.1902 15.3645C52.2736 15.3194 52.3656 15.2912 52.4603 15.282C52.733 15.282 52.869 15.6074 52.869 16.2575C52.9064 16.7543 52.8307 17.2529 52.6491 17.7163C52.467 18.1797 52.1826 18.5962 51.8179 18.9343C51.179 19.4908 50.3611 19.7972 49.5151 19.7972C48.7968 19.8079 48.0797 19.7491 47.3729 19.6218ZM47.1099 16.209C47.4225 15.5706 47.5887 14.8714 47.5968 14.1608C47.5968 13.5108 47.3825 13.1859 46.9544 13.1859C46.7789 13.1859 46.6332 13.3128 46.516 13.5659C46.4055 13.7941 46.3456 14.0437 46.3411 14.2975C46.3304 14.655 46.3933 15.0104 46.5257 15.3429C46.6578 15.675 46.8567 15.9761 47.1099 16.2284V16.209Z" fill="#7A8CA7"/>
<path d="M113.538 22.3379C115.151 22.3379 116.459 21.028 116.459 19.4126C116.459 17.7967 115.151 16.4873 113.538 16.4873C111.925 16.4873 110.617 17.7967 110.617 19.4126C110.617 21.028 111.925 22.3379 113.538 22.3379Z" fill="#0079F6"/>
<path d="M83.4097 15.7209C83.734 15.7209 83.8961 16.1695 83.8961 17.0666C83.8486 17.7 83.6374 18.3101 83.2829 18.8365C82.8562 19.5512 82.3187 20.1925 81.691 20.7382C81.0384 21.3147 80.3054 21.7926 79.515 22.1572C78.8143 22.5026 78.047 22.6923 77.2659 22.7128C76.6731 22.746 76.0842 22.6033 75.5718 22.3035C75.1544 22.0257 74.8183 21.6421 74.5978 21.1915C74.2736 20.5414 74.001 19.279 73.7805 17.4032C73.6593 16.0892 73.4448 14.7858 73.1375 13.5024C72.6521 13.4149 72.1958 13.2088 71.8085 12.903C71.6285 12.7751 71.4811 12.6053 71.3804 12.4083C71.2797 12.2114 71.2279 11.9929 71.2295 11.7715C71.2136 11.5669 71.2632 11.3618 71.3708 11.1869C71.4781 11.012 71.6383 10.8753 71.828 10.7965C72.2571 10.595 72.7267 10.4953 73.2008 10.5039C73.6899 10.4968 74.1712 10.6288 74.5882 10.8845C75.1237 10.4549 75.5744 9.92908 75.9176 9.33358C76.2843 8.55863 76.452 7.70391 76.4041 6.84707C76.424 6.37855 76.3401 5.91107 76.1584 5.47828C75.9764 5.0461 75.7012 4.65945 75.3529 4.34579C74.6808 3.71877 73.6618 3.40467 72.2956 3.40467C71.2485 3.36983 70.2019 3.47826 69.1845 3.72632C68.5481 3.90893 67.9277 4.14373 67.3297 4.42874C66.8136 4.68238 66.3563 4.91611 65.9568 5.131C65.6147 5.33005 65.228 5.44043 64.8325 5.4528C64.4822 5.4528 64.3066 5.34075 64.3066 5.11622C64.3921 4.70801 64.5834 4.32951 64.8617 4.01901C65.3226 3.43075 65.8745 2.9203 66.4976 2.50742C68.2904 1.24148 70.4378 0.577518 72.6316 0.611297C74.5916 0.544192 76.5354 0.992814 78.2685 1.91313C79.0859 2.35301 79.7626 3.0138 80.2224 3.82102C80.6817 4.62824 80.9058 5.5484 80.8684 6.47686C80.9411 7.98318 80.4752 9.46657 79.5539 10.66C78.6864 11.7521 77.534 12.5822 76.224 13.059C76.5247 13.728 76.7646 14.4231 76.9396 15.1363C77.1247 15.8768 77.3048 16.5598 77.4802 17.1838C77.6209 17.7214 77.8219 18.2416 78.0787 18.7341C78.1447 18.9024 78.2562 19.0493 78.4009 19.1577C78.5452 19.2661 78.717 19.3322 78.8966 19.3485C79.3386 19.2944 79.7503 19.0938 80.0648 18.7782C80.5227 18.3982 80.9754 17.9833 81.4235 17.5347C81.8711 17.0861 82.2705 16.6718 82.621 16.2917C82.9908 15.9112 83.2537 15.7209 83.4097 15.7209ZM70.7036 5.18935C70.957 5.18935 71.0832 5.51462 71.0832 6.16471C71.0853 6.79037 71.0464 7.41588 70.9666 8.03687C70.805 9.1024 70.5804 10.1571 70.2945 11.1965C69.5938 13.8487 69.2428 15.3991 69.2428 15.8477V20.148C69.2848 20.5879 69.1926 21.0299 68.9788 21.4165C68.7651 21.8027 68.4397 22.1153 68.0454 22.3133L66.9794 22.8007C66.6163 22.9613 66.2224 23.0412 65.8253 23.0344C65.0075 23.0344 64.5987 22.0938 64.5987 20.2115C64.6945 17.7864 65.1369 15.3873 65.9134 13.0881C66.5436 10.7949 67.4663 8.5924 68.6587 6.53507C68.8975 6.19442 69.1824 5.88906 69.5057 5.62818C69.8392 5.34226 70.2648 5.18679 70.7036 5.18935Z" fill="#0079F6"/>
<path d="M108.558 15.7216C108.882 15.7216 109.045 16.1702 109.045 17.0673C108.994 17.7017 108.779 18.3114 108.421 18.8373C107.994 19.5519 107.457 20.1932 106.829 20.7391C106.177 21.315 105.444 21.7927 104.653 22.1575C103.862 22.5268 103 22.7165 102.127 22.7135C101.739 22.7345 101.351 22.668 100.992 22.5181C100.633 22.3692 100.312 22.1406 100.053 21.8506C99.5693 21.3165 99.3038 20.6209 99.3079 19.9002C99.3228 19.0843 99.4404 18.2731 99.6588 17.4869C99.9053 16.6024 100.165 15.6731 100.437 14.6976C101.177 12.0971 101.557 10.2741 101.576 9.22693C101.594 8.8724 101.535 8.51802 101.402 8.18853C101.34 8.06623 101.242 7.96611 101.122 7.90051C101.003 7.83506 100.865 7.80792 100.729 7.82285C100.145 7.82285 99.5223 8.17375 98.8603 8.87602C98.1217 9.68671 97.493 10.5916 96.9907 11.5676C95.7207 13.806 94.9908 16.3103 94.8587 18.8813L94.9755 19.7001C95.0153 19.9912 95.0353 20.2843 95.0338 20.5779C95.0195 20.914 94.9295 21.2429 94.7698 21.5395C94.6107 21.8357 94.3861 22.0921 94.1135 22.2895C93.5442 22.7897 92.8123 23.0649 92.0547 23.0644C91.8455 23.0644 91.6409 23.0015 91.4674 22.8844C91.294 22.7672 91.1595 22.6004 91.0808 22.4066C90.8516 21.8966 90.7421 21.3417 90.7595 20.7825C90.7984 19.8904 90.9457 19.0066 91.1978 18.1498C91.4899 17.0382 91.8143 15.8582 92.1714 14.6101C93.1059 11.314 93.5831 8.85657 93.6026 7.23761C93.6327 6.57364 93.5284 5.91028 93.2956 5.28719C93.1978 5.06009 93.0312 4.86993 92.8183 4.74356C92.6061 4.61765 92.359 4.56186 92.113 4.58553C91.0614 4.58553 90.0193 5.33635 88.9876 6.83814C87.9554 8.33994 87.0305 10.6704 86.2126 13.83C85.9983 14.649 85.8362 15.3611 85.7257 15.9656L85.6966 16.5212C85.9722 17.6751 86.1574 18.849 86.2515 20.0316C86.2515 21.1632 85.8525 21.9238 85.054 22.3134L83.9876 22.8014C83.6439 22.9579 83.2704 23.0379 82.8925 23.0353C81.9191 23.0353 81.432 22.1043 81.432 20.2413C81.432 18.379 81.9349 14.7431 82.9411 9.33429C83.3114 7.38388 83.496 6.2918 83.496 6.05806C83.496 4.47801 83.097 3.68829 82.2985 3.68829C82.032 3.68617 81.7718 3.76806 81.5539 3.92202C81.3298 4.0781 81.1057 4.24066 80.8816 4.41C80.6581 4.57875 80.4259 4.75789 80.186 4.94609C79.9477 5.10367 79.6678 5.18495 79.3824 5.18027C79.0806 5.18027 78.9297 4.91698 78.9297 4.39055C78.9307 3.86019 79.0689 3.33934 79.3298 2.87805C79.5906 2.41661 79.9661 2.03102 80.4193 1.75732C81.4316 1.02837 82.6541 0.651973 83.9001 0.684696C85.6525 0.684696 86.6847 1.4975 86.9963 3.12249C87.0741 3.61002 87.1329 4.1271 87.1718 4.67299C88.6127 1.97522 90.4331 0.626343 92.6337 0.626343C95.045 0.626343 96.4133 1.77677 96.7375 4.07809C96.8579 4.78337 96.9069 5.49906 96.8839 6.21414V6.44788C98.1493 4.6929 99.6487 3.81511 101.382 3.81511C103.835 3.81511 105.062 5.29745 105.062 8.26167C105.032 9.78609 104.831 11.3022 104.463 12.7814C104.064 14.5079 103.772 15.7462 103.587 16.497C103.429 17.0649 103.336 17.6485 103.31 18.2377C103.31 18.9784 103.568 19.3492 104.084 19.3492C104.599 19.3492 105.831 18.3349 107.779 16.3067C108.142 15.9165 108.402 15.7216 108.558 15.7216Z" fill="#0079F6"/>
<path d="M66.9541 11.8355C67.4412 11.8355 67.6943 12.323 67.6943 13.2442C67.6692 14.2876 67.4478 15.3163 67.0415 16.2769C66.5741 17.4201 65.9152 18.4754 65.0947 19.3977C64.1648 20.4525 63.0451 21.3224 61.7939 21.9624C60.3259 22.701 58.6993 23.0658 57.0574 23.0254C55.2922 23.0464 53.5847 22.3946 52.2813 21.2018C50.9151 19.9829 50.2317 18.2258 50.2317 15.9311C50.2077 13.8109 50.5366 11.7014 51.2057 9.69022C51.7811 7.95002 52.6399 6.31779 53.7468 4.85791C54.7187 3.57146 55.9386 2.49371 57.3346 1.6886C58.4946 0.983168 59.8185 0.592904 61.1755 0.557617C63.282 0.557617 64.3352 1.49724 64.3352 3.37602C64.3786 4.27734 64.1731 5.17293 63.7413 5.96476C63.3454 6.615 62.9429 6.93982 62.5336 6.93982C62.2625 6.93982 61.9941 6.88192 61.7464 6.77048C61.4988 6.65843 61.2779 6.49527 61.0979 6.2917C60.9281 6.0943 60.7198 5.9331 60.4865 5.81744C60.2532 5.70192 59.9992 5.63437 59.7398 5.61854C59.2529 5.61854 57.9091 5.56485 56.7749 7.39342C56.3295 7.99917 55.9995 8.68199 55.8011 9.40733C55.1361 11.1157 54.8057 12.9367 54.8277 14.7706C55.0046 16.0917 55.6912 17.2907 56.7407 18.1101C57.3638 18.5434 58.1172 18.747 58.8727 18.6856C60.2149 18.5368 61.4513 17.8852 62.3341 16.8621C62.9966 16.1501 63.5807 15.4774 64.2084 14.7511C64.8364 14.0247 65.3915 13.3567 65.8686 12.7424C66.3455 12.128 66.706 11.8355 66.9541 11.8355Z" fill="#0079F6"/>
</svg>
