<svg width="95" height="19" viewBox="0 0 95 19" fill="none" xmlns="http://www.w3.org/2000/svg">
<g clip-path="url(#clip0_158_992)">
<path d="M58.3711 18.5898H68.3659V16.3401H61.7383C62.647 12.6087 68.2056 11.7856 68.2056 7.61531C68.2056 5.36554 66.709 3.71936 63.609 3.71936C61.6314 3.71936 59.9745 4.32296 58.7987 4.92656L59.4935 7.01171C60.5625 6.51786 61.7383 6.02401 63.1814 6.02401C64.3573 6.02401 65.4263 6.51786 65.4263 7.88968C65.4797 10.9625 58.959 11.182 58.3711 18.5898Z" fill="#0066A1"/>
<path d="M88.3555 15.462C85.3089 15.462 82.7969 12.8829 82.7969 9.75521C82.7969 6.62747 85.3089 4.04846 88.3555 4.04846C91.402 4.04846 93.9141 6.62747 93.9141 9.75521C93.9141 12.8829 91.402 15.462 88.3555 15.462ZM88.3555 5.09104C85.8434 5.09104 83.8124 7.1762 83.8124 9.75521C83.8124 12.3342 85.8434 14.4194 88.3555 14.4194C90.8676 14.4194 92.8986 12.3342 92.8986 9.75521C92.8986 7.1762 90.8676 5.09104 88.3555 5.09104Z" fill="#0066A1"/>
<path d="M91.51 9.75523H88.7307V6.90186H87.9824V10.5234H91.51V9.75523Z" fill="#0066A1"/>
<path d="M1.28906 1.68896H6.09941C9.62699 1.68896 11.2304 3.77412 11.2304 5.96903C11.2304 7.45058 10.5356 8.76753 9.25286 9.48087V9.53574C11.177 10.0296 12.3529 11.6209 12.3529 13.5963C12.3529 16.2302 10.4287 18.5897 6.58044 18.5897H1.28906V1.68896ZM5.72527 8.76753C7.38217 8.76753 8.29079 7.83469 8.29079 6.51775C8.29079 5.25568 7.48906 4.26798 5.72527 4.26798H4.33561V8.76753H5.72527ZM6.2063 16.0656C8.18389 16.0656 9.3063 15.2974 9.3063 13.5963C9.3063 12.1696 8.23734 11.2917 6.58044 11.2917H4.33561V16.0656H6.2063Z" fill="#2FC7F8"/>
<path d="M14.5977 2.6767C14.5977 1.63412 15.3994 0.811035 16.4149 0.811035C17.4304 0.811035 18.2856 1.57925 18.2856 2.6767C18.2856 3.66441 17.4839 4.4875 16.4149 4.4875C15.3459 4.4875 14.5977 3.71928 14.5977 2.6767ZM14.9183 6.46291H17.9114V18.5897H14.9183V6.46291Z" fill="#2FC7F8"/>
<path d="M21.9192 15.6267V8.87735H19.7812V6.46296H21.9192V3.66446L24.9123 2.7865V6.46296H28.4933L27.745 8.87735H24.9123V14.8585C24.9123 16.0108 25.2864 16.3949 26.0881 16.3949C26.783 16.3949 27.4244 16.1205 27.9054 15.7913L28.814 17.8765C27.9588 18.4801 26.5157 18.8093 25.3399 18.8093C23.2019 18.8642 21.9192 17.657 21.9192 15.6267Z" fill="#2FC7F8"/>
<path d="M30.4187 6.46296H32.9308L33.2514 7.83478C34.3204 6.73732 35.2825 6.1886 36.5118 6.1886C37.0463 6.1886 37.6876 6.35322 38.1687 6.68245L37.0997 9.26146C36.5652 8.93223 36.0842 8.87735 35.7635 8.87735C34.9618 8.87735 34.3204 9.20659 33.3583 10.0846V18.6447H30.3652V6.46296H30.4187Z" fill="#2FC7F8"/>
<path d="M39.3438 2.6767C39.3438 1.63412 40.1455 0.811035 41.161 0.811035C42.1765 0.811035 42.9782 1.63412 42.9782 2.6767C42.9782 3.66441 42.1765 4.4875 41.1075 4.4875C40.0386 4.4875 39.3438 3.71928 39.3438 2.6767ZM39.6644 6.46291H42.6575V18.5897H39.6644V6.46291Z" fill="#2FC7F8"/>
<path d="M48.6965 12.4989L44.4206 6.46289H47.5206L50.2999 10.4137L53.1327 6.46289H56.2327L51.9034 12.4989L56.2862 18.5897H53.1862L50.3534 14.5292L47.4672 18.5897H44.3672L48.6965 12.4989Z" fill="#2FC7F8"/>
<path d="M77.6668 12.8282V3.71936H75.7961L68.6875 13.2123V15.0231H75.1013V18.6447H77.6668V15.0231H79.8047V12.8282H77.6668ZM75.1013 10.6882V12.7733H73.3909C72.8565 12.7733 71.8944 12.8282 71.5737 12.8282L75.2082 7.77993C75.2082 8.21891 75.1013 9.53585 75.1013 10.6882Z" fill="#0066A1"/>
</g>
<defs>
<clipPath id="clip0_158_992">
<rect width="94" height="18" fill="white" transform="translate(0.345703 0.811035)"/>
</clipPath>
</defs>
</svg>
