<svg width="86" height="23" viewBox="0 0 86 23" fill="none" xmlns="http://www.w3.org/2000/svg">
<g clip-path="url(#clip0_158_1090)">
<mask id="mask0_158_1090" style="mask-type:luminance" maskUnits="userSpaceOnUse" x="0" y="0" width="86" height="23">
<path d="M85.9023 0.94043H0.902344V22.9404H85.9023V0.94043Z" fill="white"/>
</mask>
<g mask="url(#mask0_158_1090)">
<path d="M17.4389 16.3723C18.7621 14.7418 19.5568 12.657 19.5568 10.3812C19.5568 8.1074 18.7621 6.02045 17.4389 4.39209L11.5215 10.3832L17.4389 16.3723Z" fill="#1F282C"/>
<path d="M16.1457 17.6825L10.2282 11.6935L4.31282 17.6825L2.37109 19.6464C4.48267 21.4828 7.2275 22.593 10.2282 22.593C13.2288 22.593 15.9737 21.4828 18.0853 19.6464L16.1457 17.6825ZM10.2135 14.5808L12.6543 17.0669H7.77273L10.2135 14.5808Z" fill="#3CB0CB"/>
<path d="M10.2293 0.94043C5.07727 0.94043 0.902344 5.16737 0.902344 10.3836C0.902344 12.6574 1.69706 14.7443 3.0181 16.3727L16.1447 3.08469C14.5343 1.74504 12.4751 0.94043 10.2293 0.94043Z" fill="#1F282C"/>
<path d="M30.1788 4.96594C32.5211 4.96594 33.7266 6.29497 33.7266 6.29497L32.8879 7.61124C32.8879 7.61124 31.7913 6.58368 30.2605 6.58368C28.2307 6.58368 27.0377 8.11864 27.0377 9.92745C27.0377 11.7788 28.2705 13.4092 30.2733 13.4092C31.9381 13.4092 33.0619 12.1757 33.0619 12.1757L33.9826 13.4496C33.9826 13.4496 32.6553 15.0248 30.2039 15.0248C27.2661 15.0248 25.2363 12.8169 25.2363 9.95293C25.2363 7.13143 27.3481 4.96594 30.1788 4.96594Z" fill="#1F282C"/>
<path d="M38.8703 10.4772H39.101V10.3817C39.101 9.46239 38.5328 9.14818 37.7737 9.14818C36.7861 9.14818 35.8779 9.81905 35.8779 9.81905L35.228 8.57075C35.228 8.57075 36.2973 7.70667 37.935 7.70667C39.7489 7.70667 40.8056 8.7215 40.8056 10.49V14.8634H39.2205V14.288C39.2205 14.0142 39.2478 13.7933 39.2478 13.7933H39.2205C39.235 13.7933 38.6921 15.0268 37.1215 15.0268C35.8886 15.0268 34.7793 14.2456 34.7793 12.8465C34.7813 10.6279 37.7464 10.4772 38.8703 10.4772ZM37.5577 13.6702C38.4657 13.6702 39.1156 12.6831 39.1156 11.8339V11.6682H38.8179C37.9373 11.6682 36.5155 11.7913 36.5155 12.7658C36.5155 13.2329 36.853 13.6702 37.5577 13.6702Z" fill="#1F282C"/>
<path d="M42.4609 5.13159H44.1658V12.4242C44.1658 13.1927 44.4236 13.3838 44.8703 13.3838C45.0046 13.3838 45.1284 13.3711 45.1284 13.3711V14.8933C45.1284 14.8933 44.8703 14.9336 44.5872 14.9336C43.6395 14.9336 42.4609 14.6873 42.4609 12.6853V5.13159Z" fill="#1F282C"/>
<path d="M46.3066 5.13159H48.0133V12.4242C48.0133 13.1927 48.2713 13.3838 48.718 13.3838C48.8543 13.3838 48.9758 13.3711 48.9758 13.3711V14.8933C48.9758 14.8933 48.718 14.9336 48.435 14.9336C47.4872 14.9336 46.3087 14.6873 46.3087 12.6853V5.13159H46.3066Z" fill="#1F282C"/>
<path d="M50.5045 9.36699H49.6113V7.98273H50.5445V5.96802H52.2241V7.98273H53.7947V9.36699H52.2241V12.0802C52.2241 13.2308 53.1173 13.3965 53.5913 13.3965C53.7799 13.3965 53.9037 13.3689 53.9037 13.3689V14.8911C53.9037 14.8911 53.7003 14.9314 53.3753 14.9314C52.4148 14.9314 50.5045 14.6427 50.5045 12.2989V9.36699Z" fill="#1F282C"/>
<path d="M58.5883 7.70667C60.6997 7.70667 62.3921 9.22886 62.3921 11.3667C62.3921 13.5195 60.6997 15.0268 58.6008 15.0268C56.4893 15.0268 54.7949 13.5195 54.7949 11.3667C54.7972 9.22886 56.4893 7.70667 58.5883 7.70667ZM58.6008 13.5471C59.7101 13.5471 60.6454 12.6703 60.6454 11.3667C60.6454 10.0781 59.7101 9.18642 58.6008 9.18642C57.4769 9.18642 56.5439 10.0781 56.5439 11.3667C56.5439 12.6703 57.4792 13.5471 58.6008 13.5471Z" fill="#1F282C"/>
<path d="M63.7188 7.87207H65.4382V12.012C65.4382 12.8612 65.6542 13.4386 66.508 13.4386C67.7537 13.4386 68.4431 12.3283 68.4431 11.08V7.87207H70.163V14.8632H68.5102V14.0692C68.5102 13.7953 68.5378 13.5745 68.5378 13.5745H68.5102C68.1728 14.3006 67.2922 15.0266 66.1136 15.0266C64.6373 15.0266 63.7168 14.273 63.7168 12.3687V7.87207H63.7188Z" fill="#1F282C"/>
<path d="M75.2711 7.70667C77.0727 7.70667 77.924 8.74908 77.924 8.74908L77.1649 9.94217C77.1649 9.94217 76.4476 9.18854 75.3633 9.18854C74.0908 9.18854 73.2643 10.163 73.2643 11.354C73.2643 12.5323 74.1036 13.5471 75.4181 13.5471C76.5818 13.5471 77.4497 12.6554 77.4497 12.6554L78.1126 13.8889C78.1126 13.8889 77.125 15.0268 75.2691 15.0268C72.9812 15.0268 71.5176 13.3964 71.5176 11.3667C71.5196 9.37964 72.9838 7.70667 75.2711 7.70667Z" fill="#1F282C"/>
<path d="M79.4023 5.13159H81.1215V8.50299C81.1215 8.84476 81.0947 9.09318 81.0947 9.09318H81.1215C81.4589 8.42231 82.3 7.70892 83.5061 7.70892C85.0348 7.70892 85.9027 8.5178 85.9027 10.3691V14.8656H84.1955V10.7258C84.1955 9.87656 83.9796 9.29906 83.0989 9.29906C82.1915 9.29906 81.4885 9.90206 81.231 10.7513C81.1491 11.0251 81.1215 11.3266 81.1215 11.6556V14.8635H79.4023V5.13159Z" fill="#1F282C"/>
</g>
</g>
<defs>
<clipPath id="clip0_158_1090">
<rect width="85" height="22" fill="white" transform="translate(0.902344 0.94043)"/>
</clipPath>
</defs>
</svg>
