<svg width="22" height="20" viewBox="0 0 22 20" fill="none" xmlns="http://www.w3.org/2000/svg">
<path d="M21.0788 1.30924C20.9174 1.16975 20.7208 1.07713 20.5105 1.0414C20.3002 1.00568 20.0841 1.02822 19.8856 1.10658L1.86249 8.18714C1.62688 8.27969 1.42758 8.44605 1.29441 8.66132C1.16124 8.87659 1.10136 9.1292 1.12373 9.38134C1.1461 9.63348 1.24951 9.8716 1.4185 10.0601C1.58749 10.2485 1.81297 10.3772 2.06119 10.4268L6.9532 11.4053V17.4437C6.95076 17.676 7.01851 17.9036 7.14758 18.0968C7.27666 18.29 7.46104 18.4397 7.67661 18.5263C7.82102 18.5868 7.97596 18.6181 8.13251 18.6185C8.2855 18.618 8.43688 18.5872 8.57785 18.5277C8.71882 18.4683 8.84658 18.3815 8.95372 18.2722L11.7463 15.4796L15.8668 19.1057C16.0791 19.2942 16.3531 19.3985 16.6371 19.3988C16.7605 19.3987 16.8832 19.3792 17.0006 19.3411C17.1943 19.2797 17.3685 19.1686 17.5058 19.0188C17.6431 18.8691 17.7387 18.6859 17.7832 18.4877L21.4564 2.45908C21.5044 2.25121 21.4945 2.03418 21.428 1.83149C21.3614 1.62881 21.2406 1.4482 21.0788 1.30924ZM1.90192 9.31228C1.89221 9.2279 1.91123 9.1427 1.95592 9.07047C2.00062 8.99823 2.06836 8.94318 2.14821 8.91422L18.6692 2.42377L7.25323 10.6686L2.21439 9.66085C2.13069 9.64637 2.05432 9.60409 1.99762 9.54084C1.94092 9.47758 1.9072 9.39706 1.90192 9.31228ZM8.40126 17.7199C8.34663 17.7745 8.27704 17.8117 8.20127 17.8268C8.1255 17.8419 8.04696 17.8341 7.97558 17.8046C7.90421 17.775 7.8432 17.7249 7.80028 17.6607C7.75736 17.5965 7.73445 17.5209 7.73445 17.4437V11.9492L11.1587 14.9625L8.40126 17.7199ZM20.6949 2.28456L17.0217 18.3132C17.0065 18.3791 16.9745 18.44 16.9288 18.4899C16.8831 18.5397 16.8252 18.5769 16.7608 18.5977C16.6964 18.6184 16.6277 18.6221 16.5614 18.6083C16.4952 18.5946 16.4336 18.5638 16.3828 18.5191L7.96934 11.1152L20.6318 1.97018C20.6651 2.01455 20.688 2.06582 20.6989 2.12021C20.7099 2.17461 20.7085 2.23077 20.6949 2.28456Z" fill="#0E0C0F" stroke="#0E0C0F"/>
</svg>
