<svg width="134" height="24" viewBox="0 0 134 24" fill="none" xmlns="http://www.w3.org/2000/svg">
<g clip-path="url(#clip0_158_1054)">
<path d="M16.7763 22.331C16.776 22.6678 16.6396 22.9907 16.3971 23.2289C16.1545 23.467 15.8256 23.6009 15.4826 23.6012H1.67943C1.33642 23.6012 1.00743 23.4675 0.764692 23.2296C0.521955 22.9916 0.385312 22.6688 0.384766 22.332V2.49414C0.38463 2.32716 0.418025 2.1618 0.48304 2.0075C0.548055 1.85321 0.643414 1.71301 0.763661 1.59494C0.883909 1.47687 1.02669 1.38324 1.18382 1.3194C1.34096 1.25556 1.50937 1.22277 1.67943 1.2229H10.538L16.7763 7.4698V22.331Z" fill="#23A566"/>
<path d="M11.2246 7.3068L16.7764 12.5173V7.43331H11.8585C11.6438 7.4357 11.4322 7.38339 11.2442 7.28149L11.2246 7.3068Z" fill="#1C8F5A"/>
<path d="M16.7776 7.45966H11.8464C11.5034 7.45939 11.1745 7.32548 10.9319 7.08732C10.6894 6.84917 10.553 6.52624 10.5527 6.18943V1.18848L16.7776 7.45966Z" fill="#8ED1B1"/>
<path fill-rule="evenodd" clip-rule="evenodd" d="M12.8305 19.4757H4.30078V12.2136H12.8305V19.4757ZM9.09598 13.2612V14.5324H11.7822V13.2632L9.09598 13.2612ZM9.09598 15.333V16.5476H11.7822V15.3269L9.09598 15.333ZM9.09598 17.3219V18.4463H11.7822V17.3158L9.09598 17.3219ZM8.04149 18.4403V17.3158H5.3563V18.4403H8.04149ZM8.04149 16.5344V15.3269H5.3563V16.5405L8.04149 16.5344ZM8.04149 14.5456V13.2612H5.3563V14.5324L8.04149 14.5456Z" fill="white"/>
<path d="M45.9629 12.4181C45.9629 10.825 44.7404 9.73593 43.321 9.73593C41.9016 9.73593 40.6781 10.825 40.6781 12.4181C40.6781 13.995 41.9016 15.1002 43.321 15.1002C44.7404 15.1002 45.9629 13.993 45.9629 12.4181ZM48.0204 12.4181C48.0204 14.9666 45.9104 16.8452 43.32 16.8452C40.7307 16.8452 38.6207 14.9666 38.6207 12.4181C38.6207 9.85132 40.7307 7.99102 43.321 7.99102C45.9104 7.99102 48.0204 9.85132 48.0204 12.4181ZM56.1007 12.4181C56.1007 10.825 54.8782 9.73593 53.4588 9.73593C52.0394 9.73593 50.8169 10.825 50.8169 12.4181C50.8169 13.995 52.0394 15.1002 53.4588 15.1002C54.8782 15.1002 56.1007 13.993 56.1007 12.4181ZM58.1581 12.4181C58.1581 14.9666 56.0481 16.8452 53.4588 16.8452C50.8694 16.8452 48.7584 14.9666 48.7584 12.4181C48.7584 9.85334 50.8694 7.99102 53.4588 7.99102C56.0481 7.99102 58.1581 9.85132 58.1581 12.4181ZM66.0673 12.4333C66.0673 10.8746 64.9664 9.73492 63.5666 9.73492C62.1462 9.73492 60.9577 10.8746 60.9577 12.4333C60.9577 13.9768 62.1462 15.1002 63.5656 15.1002C64.9664 15.1002 66.0673 13.9758 66.0673 12.4333ZM67.8753 8.25822V16.2065C67.8753 19.4757 65.8343 20.8117 63.4223 20.8117C62.5456 20.8258 61.6842 20.5858 60.9457 20.1217C60.2072 19.6576 59.6245 18.99 59.2703 18.2024L61.0608 17.498C61.3803 18.2186 62.1617 19.0688 63.4213 19.0688C64.9644 19.0688 65.9209 18.168 65.9209 16.4737V15.8361H65.8488C65.389 16.3735 64.5015 16.8431 63.3821 16.8431C61.0402 16.8431 58.8941 14.915 58.8941 12.4343C58.8941 9.93431 61.0402 7.99102 63.3821 7.99102C64.4995 7.99102 65.387 8.45963 65.8498 8.98088H65.922V8.26024H67.8753V8.25822ZM71.0965 3.59734H69.0896V16.5729H71.0955L71.0965 3.59734ZM74.0002 12.2804L78.1872 10.6377C77.9574 10.0841 77.2637 9.6995 76.4493 9.6995C75.4031 9.6995 73.9476 10.572 74.0002 12.2804ZM78.916 13.8725L80.5127 14.8786C80.0733 15.4925 79.4882 15.992 78.8081 16.3339C78.1279 16.6759 77.3732 16.85 76.6091 16.8411C73.9476 16.8411 71.9603 14.8978 71.9603 12.414C71.9603 9.78148 73.9652 7.98697 76.3792 7.98697C78.8098 7.98697 79.9994 9.81488 80.389 10.8027L80.6013 11.3058L74.3383 13.7571C74.8176 14.6458 75.5639 15.0982 76.6091 15.0982C77.6574 15.0982 78.3831 14.6114 78.916 13.8725ZM31.0248 11.2643V9.38574H37.7228C37.7878 9.71266 37.8218 10.1003 37.8218 10.5193C37.8218 11.9282 37.4146 13.6711 36.1004 14.912C34.8222 16.1701 33.1895 16.8411 31.0269 16.8411C27.0171 16.8411 23.6465 13.7541 23.6465 9.9667C23.6465 6.17929 27.0171 3.09229 31.0269 3.09229C33.2451 3.09229 34.8243 3.91414 36.0117 4.98599L34.6099 6.31188C33.7585 5.55683 32.605 4.97081 31.0248 4.97081C28.0974 4.97081 25.808 7.19953 25.808 9.9667C25.808 12.7339 28.0974 14.9626 31.0248 14.9626C32.9235 14.9626 34.0048 14.242 34.6975 13.5871C35.2603 13.0557 35.6293 12.2976 35.7757 11.2622L31.0248 11.2643ZM92.6429 13.8472C92.6429 14.8725 92.2595 15.6964 91.4936 16.3178C90.7154 16.9292 89.7722 17.2348 88.661 17.2348C87.6715 17.2348 86.8005 16.9514 86.0449 16.3836C85.2893 15.8168 84.7667 15.0415 84.4781 14.0598L85.9449 13.4717C86.0449 13.8199 86.183 14.1367 86.3613 14.4201C86.5386 14.7035 86.7448 14.9494 86.9777 15.1569C87.222 15.3533 87.489 15.5112 87.7776 15.6306C88.0663 15.7399 88.3714 15.7946 88.694 15.7946C89.3939 15.7946 89.966 15.6205 90.4103 15.2713C90.8545 14.911 91.0772 14.4363 91.0772 13.8472C91.0772 13.3563 90.8937 12.9363 90.5267 12.5881C90.1824 12.2501 89.5382 11.9221 88.594 11.6064C87.6385 11.2683 87.0448 11.0396 86.8108 10.9181C85.545 10.2865 84.911 9.35335 84.911 8.12057C84.911 7.25924 85.2615 6.52342 85.9614 5.91209C86.6726 5.30177 87.5447 4.99611 88.5775 4.99611C89.4887 4.99611 90.2773 5.22485 90.9432 5.68335C91.6101 6.13071 92.0544 6.69245 92.277 7.36855L90.8442 7.95761C90.7092 7.51912 90.4269 7.13845 90.0433 6.87767C89.6547 6.58313 89.1774 6.43536 88.6105 6.43536C88.0106 6.43536 87.5055 6.59933 87.0953 6.92625C86.6829 7.23191 86.4768 7.62968 86.4768 8.12057C86.4768 8.52542 86.6386 8.8736 86.9613 9.16813C87.3169 9.46165 88.0889 9.81184 89.2774 10.2157C90.4876 10.6185 91.3493 11.1155 91.8595 11.7035C92.3821 12.2825 92.6429 12.997 92.6429 13.8472ZM94.2221 5.25724H95.7549V8.95558L95.6879 10.0689H95.7549C95.9878 9.67521 96.3434 9.34829 96.8217 9.08716C97.2849 8.83163 97.8067 8.69613 98.338 8.69344C99.3368 8.69344 100.104 8.97684 100.637 9.54363C101.181 10.1003 101.453 10.8969 101.453 11.9323V16.9727H99.9202V12.2278C99.9202 10.7875 99.2709 10.0679 97.971 10.0679C97.3484 10.0679 96.8217 10.324 96.3878 10.8371C95.9679 11.3327 95.7433 11.9598 95.7549 12.6043V16.9727H94.2221V5.25724ZM106.919 17.2348C105.719 17.2348 104.731 16.83 103.953 16.0233C103.175 15.2166 102.787 14.1964 102.787 12.9636C102.787 11.742 103.164 10.7278 103.92 9.92115C104.675 9.10234 105.641 8.69344 106.819 8.69344C108.029 8.69344 108.991 9.08108 109.701 9.85537C110.424 10.6185 110.785 11.6934 110.785 13.078L110.768 13.242H104.353C104.375 14.0274 104.641 14.66 105.153 15.1397C105.664 15.6195 106.275 15.8604 106.985 15.8604C107.963 15.8604 108.729 15.3806 109.285 14.4201L110.652 15.0749C110.301 15.7339 109.77 16.2835 109.119 16.662C108.474 17.0435 107.741 17.2348 106.919 17.2348ZM104.469 11.9991H109.152C109.136 11.7354 109.065 11.4778 108.945 11.2415C108.825 11.0053 108.657 10.7954 108.452 10.6246C108.041 10.2531 107.485 10.0679 106.785 10.0679C106.208 10.0679 105.708 10.242 105.285 10.5912C104.875 10.9404 104.603 11.411 104.469 11.9991ZM115.934 17.2348C114.735 17.2348 113.745 16.83 112.968 16.0233C112.191 15.2166 111.801 14.1964 111.801 12.9636C111.801 11.742 112.179 10.7278 112.935 9.92115C113.69 9.10234 114.656 8.69344 115.835 8.69344C117.045 8.69344 118.005 9.08108 118.717 9.85537C119.439 10.6185 119.8 11.6934 119.8 13.078L119.783 13.242H113.368C113.391 14.0274 113.656 14.66 114.168 15.1397C114.679 15.6195 115.289 15.8604 116 15.8604C116.979 15.8604 117.745 15.3806 118.3 14.4201L119.667 15.0749C119.316 15.7341 118.785 16.2838 118.133 16.662C117.489 17.0435 116.756 17.2348 115.934 17.2348ZM113.484 11.9991H118.167C118.151 11.7354 118.081 11.4778 117.96 11.2415C117.84 11.0053 117.672 10.7954 117.467 10.6246C117.056 10.2531 116.5 10.0679 115.8 10.0679C115.223 10.0679 114.723 10.242 114.301 10.5912C113.89 10.9404 113.617 11.411 113.484 11.9991ZM124.19 17.1033C123.524 17.1033 122.969 16.9008 122.524 16.498C122.09 16.0942 121.869 15.5324 121.857 14.8128V10.329H120.425V8.95558H121.857V6.50115H123.39V8.95558H125.39V10.3301H123.39V14.3219C123.39 14.8563 123.496 15.2227 123.708 15.4181C123.918 15.6033 124.157 15.6964 124.424 15.6964C124.546 15.6964 124.662 15.6863 124.773 15.664C124.896 15.6306 125.006 15.5932 125.106 15.5496L125.59 16.8907C125.19 17.0324 124.724 17.1033 124.19 17.1033ZM133.26 14.747C133.26 15.4454 132.949 16.0344 132.327 16.5142C131.704 16.9939 130.921 17.2348 129.977 17.2348C129.155 17.2348 128.433 17.0273 127.811 16.6124C127.202 16.2042 126.737 15.6213 126.478 14.9434L127.844 14.3715C128.044 14.8513 128.333 15.2278 128.711 15.5C129.1 15.7622 129.521 15.8927 129.977 15.8927C130.466 15.8927 130.872 15.7895 131.193 15.582C131.527 15.3745 131.693 15.1296 131.693 14.8452C131.693 14.333 131.293 13.9565 130.493 13.7167L129.094 13.3725C127.505 12.9808 126.711 12.2278 126.711 11.1155C126.711 10.3847 127.011 9.80071 127.611 9.36448C128.222 8.91712 129 8.69344 129.944 8.69344C130.665 8.69344 131.316 8.86246 131.893 9.20052C132.483 9.53857 132.893 9.992 133.127 10.5588L131.76 11.1155C131.603 10.7756 131.332 10.4986 130.993 10.3301C130.639 10.131 130.236 10.0293 129.827 10.0355C129.427 10.0355 129.067 10.1337 128.744 10.329C128.433 10.5264 128.277 10.7663 128.277 11.0497C128.277 11.5082 128.716 11.8351 129.594 12.0315L130.827 12.3422C132.449 12.7349 133.26 13.5365 133.26 14.747Z" fill="#787879"/>
</g>
<defs>
<clipPath id="clip0_158_1054">
<rect width="133" height="23" fill="white" transform="translate(0.259766 0.85022)"/>
</clipPath>
</defs>
</svg>
