<svg width="54" height="19" viewBox="0 0 54 19" fill="none" xmlns="http://www.w3.org/2000/svg">
<path d="M10.3769 0.5V7.88202H3.62312V0.5H0V18.5H3.62312V11.2651H10.3769V18.5H14V0.5H10.3769Z" fill="#0E0C0F"/>
<path d="M22.7748 5.5C19.5995 5.5 17.7938 7.33676 17.4623 9.47668H20.655C20.8469 8.82579 21.4576 8.21056 22.6265 8.21056C23.778 8.21056 24.6241 8.80796 24.6241 9.96708V10.5466H21.981C18.8755 10.5466 17 12.0089 17 14.559C17 17.0556 18.8842 18.5 21.2308 18.5C22.801 18.5 24.0745 17.8759 24.8247 16.8683V18.2147H28V10.0919C27.9913 7.06036 25.9064 5.5 22.7748 5.5ZM22.1642 15.7805C21.1086 15.7805 20.4282 15.2545 20.4282 14.3896C20.4282 13.4979 21.1784 12.9719 22.2339 12.9719H24.6328V13.5247C24.6328 14.9691 23.4814 15.7805 22.1642 15.7805Z" fill="#0E0C0F"/>
<path d="M38.3482 5.33015C36.5768 5.33015 35.3677 6.00854 34.6835 6.88593V0.5H31V18.2106H34.5335V16.7724C35.1146 17.7492 36.3987 18.5 38.2451 18.5C41.4506 18.5 44 16.0668 44 11.9241C44.0093 7.71809 41.46 5.33015 38.3482 5.33015ZM37.4672 15.4427C35.752 15.4427 34.6179 14.104 34.6179 11.9784V11.8789C34.6179 9.76231 35.752 8.39648 37.4672 8.39648C39.1824 8.39648 40.2977 9.78945 40.2977 11.9332C40.2977 14.0769 39.1824 15.4427 37.4672 15.4427Z" fill="#0E0C0F"/>
<path d="M53.1162 5.50929C51.6674 5.50929 50.2734 6.05754 49.4351 7.5629V5.55575H46V18.5H49.5809V11.9396C49.5809 10.0904 50.7563 8.95676 52.9157 8.95676H54V5.5L53.1162 5.50929Z" fill="#0E0C0F"/>
</svg>
