<svg width="100" height="17" viewBox="0 0 100 17" fill="none" xmlns="http://www.w3.org/2000/svg">
<g clip-path="url(#clip0_81_158)">
<path fill-rule="evenodd" clip-rule="evenodd" d="M12.9516 11.7457C12.9516 9.41695 15.5032 9.32362 18.5468 9.32362H18.9655V6.82838H18.4C15.381 6.82838 13.4659 6.61809 13.4659 5.0181C13.4659 3.63029 14.6437 3.20514 16.1913 3.20514C18.221 3.20514 19.3183 3.62114 20.1675 4.19333V1.18229C19.3333 0.805905 18.0329 0.5 16.1917 0.5C12.754 0.5 10.031 1.77086 10.031 4.87562C10.031 6.12286 10.6921 7.7 12.5579 8.02914C10.6187 8.33543 9.46548 10.0055 9.46548 11.7461C9.46508 15.2291 12.4841 16.5 16.1913 16.5C18.8405 16.5 20.6329 16.1472 21.8107 15.3693V12.2112C20.971 13.0661 19.0389 13.7949 16.877 13.7949C15.1456 13.7949 12.9516 13.2756 12.9516 11.7457ZM51.4405 0.853143H34.1865V9.79524L23.6032 0.5H23.4567V16.1472H26.8798V7.53391L37.4607 16.5H37.6095V3.5579H42.7659V16.1472H46.1865V3.5579H51.4405V0.853143ZM3.47143 0.9H0V16.1H9.05357V13.177H3.47143V0.9ZM83.8345 6.83905C83.8345 3.00362 81.2913 0.9 77.0567 0.9H72.0159V16.1H75.4429V12.78H77.0564C77.5222 12.78 77.9861 12.7571 78.4036 12.6848L81.5595 16.1H85.5964L81.4615 11.4939C82.9774 10.3933 83.8341 8.71029 83.8341 6.83867L83.8345 6.83905ZM76.7147 10.0893H75.4433V3.58838H76.7393C79.1877 3.58838 80.4099 4.7819 80.4099 6.83867C80.4099 8.66343 79.1385 10.0893 76.7147 10.0893ZM68.1179 12.9C67.8729 12.899 67.6302 12.9446 67.4037 13.0341C67.1772 13.1236 66.9714 13.2553 66.7982 13.4216C66.6251 13.5879 66.4879 13.7855 66.3947 14.003C66.3015 14.2204 66.2541 14.4534 66.2552 14.6886C66.2552 15.692 67.0881 16.5 68.1179 16.5C69.1258 16.5 69.9591 15.692 69.9591 14.6886C69.9591 13.6897 69.1258 12.9 68.1179 12.9ZM96.5492 0.9V8.93505C96.5492 12.289 95.2064 13.8029 93.0103 13.8029C90.7425 13.8029 89.4611 12.289 89.4611 8.93505V0.9H86.0083V8.20629C86.0083 13.2977 87.9067 16.5 93.0103 16.5C98.1159 16.5 100 13.2276 100 8.20629V0.9H96.5492ZM56.5357 0.5H56.3889L48.1484 16.1H51.8258L53.0274 13.5659H60.0663L61.3437 16.1H65.021L56.5353 0.5H56.5357ZM54.2556 10.9853L56.4623 6.388L58.7671 10.9853H54.2556Z" fill="#0E0C0F"/>
</g>
<defs>
<clipPath id="clip0_81_158">
<rect width="100" height="16" fill="white" transform="translate(0 0.5)"/>
</clipPath>
</defs>
</svg>
