<?xml version="1.0" standalone="no"?>
<!DOCTYPE svg PUBLIC "-//W3C//DTD SVG 20010904//EN"
 "http://www.w3.org/TR/2001/REC-SVG-20010904/DTD/svg10.dtd">
<svg version="1.0" xmlns="http://www.w3.org/2000/svg"
 width="32.000000pt" height="33.000000pt" viewBox="0 0 32.000000 33.000000"
 preserveAspectRatio="xMidYMid meet">

<g transform="translate(0.000000,33.000000) scale(0.100000,-0.100000)"
fill="#000000" stroke="none">
<path d="M100 308 c0 -26 33 -102 47 -111 5 -3 18 20 28 51 9 31 20 63 22 70
3 6 0 12 -7 12 -6 0 -14 -10 -17 -21 -6 -21 -6 -21 -20 2 -12 22 -13 20 -7
-25 8 -56 -10 -58 -20 -1 -8 40 -26 57 -26 23z"/>
<path d="M215 308 c-31 -87 -35 -102 -22 -88 20 22 49 100 37 100 -6 0 -13 -6
-15 -12z"/>
</g>
</svg>
