<svg width="93" height="20" viewBox="0 0 93 20" fill="none" xmlns="http://www.w3.org/2000/svg">
<g clip-path="url(#clip0_158_1041)">
<mask id="mask0_158_1041" style="mask-type:alpha" maskUnits="userSpaceOnUse" x="0" y="0" width="19" height="20">
<path d="M9.74297 19.3718C14.824 19.3718 18.943 15.2527 18.943 10.1717C18.943 5.09066 14.824 0.97168 9.74297 0.97168C4.66194 0.97168 0.542969 5.09066 0.542969 10.1717C0.542969 15.2527 4.66194 19.3718 9.74297 19.3718Z" fill="white"/>
</mask>
<g mask="url(#mask0_158_1041)">
<path d="M0.542969 0.972412H18.943V19.3723H0.542969V0.972412Z" fill="url(#paint0_linear_158_1041)"/>
<path d="M0.542969 12.2939H6.2045V19.3709H0.542969V12.2939Z" fill="url(#paint1_linear_158_1041)"/>
<path d="M6.20508 10.0293C6.20508 8.84043 6.20505 8.24598 6.43648 7.79164C6.64001 7.39217 6.9648 7.06737 7.36428 6.86384C7.81859 6.63245 8.41305 6.63245 9.60199 6.63245H13.282V19.371H6.20508V10.0293Z" fill="url(#paint2_linear_158_1041)"/>
<path d="M13.2812 0.970947H18.9428V19.371H13.2812V0.970947Z" fill="url(#paint3_linear_158_1041)"/>
</g>
<path d="M28.727 16.8544H30.8263L33.5974 6.5985V16.8544H35.8947V3.09399H32.686L29.8951 13.4093L27.084 3.09399H23.8965V16.8544H25.9557V6.59779L28.727 16.8537V16.8544ZM45.4973 16.1807V14.2614C44.765 14.7561 43.5371 15.1913 42.3891 15.1913C40.6667 15.1913 40.0133 14.3796 39.9142 12.7165H45.5971V11.4695C45.5971 8.00469 44.0721 6.6983 41.7162 6.6983C38.8458 6.6983 37.4793 8.89569 37.4793 11.9048C37.4793 15.3696 39.1819 17.0525 42.1919 17.0525C43.6963 17.0525 44.8047 16.6562 45.4983 16.1821L45.4973 16.1807ZM41.6767 8.5588C42.8442 8.5588 43.201 9.52836 43.201 10.776V10.9742H39.9142C39.9738 9.38963 40.5477 8.55809 41.6767 8.55809V8.5588ZM53.9784 8.75625V6.89504H46.0782V8.75625H48.8505V16.8544H51.2072V8.75555H53.9784V8.75625ZM57.5507 6.89504H55.3732V19.7248H57.7291V15.686C58.3235 16.577 59.194 17.0518 60.2038 17.0518C62.5003 17.0518 64.0842 15.2104 64.0842 11.8644C64.0842 8.53829 62.5401 6.69759 60.3228 6.69759C59.2139 6.69759 58.3029 7.21207 57.6697 8.18234L57.5507 6.89504ZM59.6101 15.1906C58.3626 15.1906 57.7291 14.1814 57.7291 11.8842C57.7291 9.56799 58.4023 8.55809 59.7283 8.55809C61.0156 8.55809 61.649 9.56799 61.649 11.8644C61.649 14.1814 60.9761 15.1906 59.6101 15.1906ZM65.6588 6.89504V16.8537H67.7578L71.3608 10.6968V16.8537H73.638V6.89575H71.5389L67.9362 13.0534V6.89644H65.6588V6.89504ZM81.4565 16.8544H84.1294L80.3483 11.5679L83.6746 6.89504H81.298L77.972 11.5679V6.89434H75.6161V16.853H77.972V12.0421L81.4565 16.8537V16.8544ZM92.1668 10.0634C92.1668 7.64729 90.9396 6.7372 88.4451 6.7372C86.8811 6.7372 85.6532 7.2319 84.9407 7.648V9.60833C85.5739 9.13274 86.9603 8.61755 88.1679 8.61755C89.2964 8.61755 89.8111 9.01385 89.8111 10.0825V10.6373H89.4352C85.8315 10.6373 84.228 11.8248 84.228 13.8446C84.228 15.8643 85.4552 16.9924 87.2768 16.9924C88.6629 16.9924 89.2569 16.5373 89.7117 16.0618H89.8111C89.8307 16.3194 89.91 16.6562 89.9894 16.8544H92.2858C92.2065 16.0448 92.1668 15.2319 92.1668 14.4185V10.0634ZM89.8111 14.478C89.5137 14.9139 88.9595 15.2706 88.1281 15.2706C87.1379 15.2706 86.6434 14.7157 86.6434 13.8644C86.6434 12.7356 87.4549 12.3202 89.4747 12.3202H89.8111V14.4787V14.478Z" fill="#1B202B"/>
</g>
<defs>
<linearGradient id="paint0_linear_158_1041" x1="13.7294" y1="14.3117" x2="-1.45059" y2="-6.84829" gradientUnits="userSpaceOnUse">
<stop stop-color="#4643B9"/>
<stop offset="1" stop-color="#1E8AFF"/>
</linearGradient>
<linearGradient id="paint1_linear_158_1041" x1="6.57746" y1="16.9223" x2="-10.158" y2="14.0073" gradientUnits="userSpaceOnUse">
<stop stop-color="#FF002E"/>
<stop offset="1" stop-color="#FFADA1"/>
</linearGradient>
<linearGradient id="paint2_linear_158_1041" x1="49.7282" y1="47.3248" x2="53.9411" y2="12.8693" gradientUnits="userSpaceOnUse">
<stop stop-color="#3C3BA0"/>
<stop offset="0.49" stop-color="#1E8AFF"/>
<stop offset="1" stop-color="#00B2FF"/>
</linearGradient>
<linearGradient id="paint3_linear_158_1041" x1="13.2813" y1="1.91713" x2="29.3046" y2="10.1972" gradientUnits="userSpaceOnUse">
<stop stop-color="#FFEA1A"/>
<stop offset="1" stop-color="#FFB800"/>
</linearGradient>
<clipPath id="clip0_158_1041">
<rect width="92" height="19" fill="white" transform="translate(0.542969 0.85022)"/>
</clipPath>
</defs>
</svg>
