<svg width="55" height="33" viewBox="0 0 55 33" fill="none" xmlns="http://www.w3.org/2000/svg">
<path d="M22.9323 18.1277C20.6989 21.1095 18.7592 20.3779 17.1997 17.4249C16.5402 18.0964 15.8255 18.7101 15.0649 19.2636C13.4188 20.2961 11.6547 19.3286 11.5464 17.3696C11.5079 16.6452 11.5464 15.9087 11.5127 15.1723C11.4453 14.9124 11.3346 14.6693 11.183 14.4479C10.9351 14.573 10.5789 14.6356 10.4586 14.8378C10.1746 15.3672 9.92914 15.9183 9.72939 16.4839C9.43818 17.1818 9.18067 17.9014 8.87262 18.5801C8.55735 19.278 7.78722 19.6487 7.04356 19.4633C6.30472 19.3911 5.74156 18.7678 5.74878 18.0242C5.69343 17.0856 5.79932 16.1349 5.74878 15.1915C5.68861 14.8811 5.58513 14.5778 5.44073 14.2963C5.18803 14.5056 4.82462 14.6597 4.69466 14.9268C4.2013 15.9978 3.76088 17.1554 3.26751 18.2528C3.1183 18.6282 2.91133 18.9772 2.65141 19.2853C2.12195 19.8893 1.2026 19.9519 0.598531 19.4224C0.353052 19.2082 0.186993 18.9146 0.126826 18.5945C0.0810997 18.4381 0.0522198 18.2793 0.0449998 18.118C0.0449998 15.9207 -0.0271999 13.6826 0.0113066 11.4636C0.0305599 10.874 0.223092 10.3012 0.560025 9.81746C0.911397 9.36261 1.40476 9.0353 1.9607 8.88368C2.80544 8.65746 3.22419 9.05937 3.2627 9.98112C3.29639 10.6887 3.2627 11.4035 3.2627 12.1158L3.63092 12.2193C3.90047 11.957 4.14594 11.673 4.36736 11.3674C4.82944 10.6093 5.22894 9.80784 5.69102 9.04493C6.02554 8.35422 6.81493 8.01488 7.54655 8.24351C8.26614 8.40957 8.74266 9.09787 8.64399 9.8295V12.2121L8.95685 12.3108C9.17827 12.111 9.38764 11.8944 9.57777 11.6634C10.2372 10.8788 10.8509 10.0485 11.532 9.28559C11.816 8.96069 12.1721 8.70559 12.5692 8.53953C13.3658 8.14965 14.3237 8.47936 14.7136 9.27597C14.8628 9.5792 14.9109 9.92095 14.8532 10.2531C14.7425 11.8463 14.6438 13.4371 14.5571 15.0303C14.5547 15.3191 14.5692 15.6103 14.6005 15.8967C15.7869 15.514 16.6558 14.4936 16.8459 13.2614C16.9277 11.9474 17.0865 10.6405 17.3224 9.34576C17.4475 8.56119 18.0949 7.96193 18.8867 7.90176C19.5967 7.75496 20.3283 8.03654 20.7543 8.62617C21.2356 9.31688 21.2549 10.229 20.7976 10.9366C20.1382 12.034 20.1815 13.2253 20.3307 14.3997C20.4029 14.9148 20.6917 15.372 21.1225 15.6632C21.7218 15.9544 22.2199 15.4274 22.4558 14.9003C22.877 13.8221 23.2452 12.7223 23.5532 11.6056C23.7843 10.8307 23.8781 10.0124 24.1019 9.24468C24.4413 8.17372 25.1994 7.70201 26.1115 7.9162C27.0766 8.15446 27.6975 9.09306 27.5387 10.075C27.4737 10.6237 27.2595 11.1171 27.1753 11.6513C26.9105 13.2662 26.6819 14.8859 26.422 16.5922C27.6638 16.2023 28.6505 15.8678 29.6613 15.5983C30.1354 15.4996 30.6216 15.4659 31.1053 15.5044C32.0174 15.5044 32.4458 15.9593 32.7515 16.9917C33.7551 20.2479 35.9307 22.1973 39.2952 22.7629C44.1374 23.5811 48.7485 19.2371 48.2672 14.3468C48.2335 14.0219 48.1902 13.6994 48.1685 13.3745C47.9736 12.4864 48.5367 11.608 49.4248 11.4131C50.3129 11.2181 51.1913 11.7813 51.3862 12.6694C51.4079 12.7728 51.4223 12.8763 51.4247 12.9822C52.089 17.4297 50.6883 21.1239 47.1313 23.8627C42.2313 27.5979 35.2303 26.652 31.4952 21.7521C31.1896 21.3502 30.9104 20.9266 30.6601 20.4862C29.9068 19.1794 29.6661 19.1023 28.2992 19.757C28.2294 19.7979 28.1548 19.834 28.0802 19.8677C26.7132 20.3779 26.203 21.3381 26.0754 22.8158C25.8949 25.1551 25.5267 27.4775 24.978 29.7614C24.2415 32.6759 22.4582 33.1933 20.0371 31.4076C17.0456 29.2272 16.4969 25.8578 18.7856 22.9963C19.7748 21.8532 20.8915 20.8279 22.1189 19.9447C22.7494 19.5789 23.0767 18.8472 22.9323 18.1277ZM22.7061 23.586L22.3668 23.4367C21.8975 24.0649 21.4643 24.7195 21.072 25.3958C20.7495 26.0528 20.8987 26.8446 21.4402 27.3403C21.7916 27.7182 22.155 27.8241 22.2536 27.1526C22.4317 25.9469 22.5376 24.7772 22.7061 23.586Z" fill="#FF2D39"/>
<path d="M45.8058 5.94989C45.6662 4.7971 46.1452 3.65634 47.0621 2.94638C47.7432 2.33749 48.3521 1.63475 49.0283 1.01383C49.281 0.845366 49.5602 0.717813 49.8514 0.635986C49.9717 0.888685 50.056 1.15582 50.1041 1.43259C50.1378 2.40488 50.1306 3.37717 50.1041 4.35427C50.1041 5.03536 50.4049 5.33619 51.086 5.33138H54.0847C54.335 5.3747 54.5781 5.45652 54.8043 5.57204C54.7393 5.84399 54.631 6.10151 54.4794 6.33495C53.6828 7.17969 52.8333 7.98111 52.0246 8.8114C51.4687 9.39141 50.6649 9.66095 49.8731 9.53099C48.766 9.36253 47.6565 9.81979 46.9899 10.7223C46.1379 11.6994 45.1392 12.5441 44.2439 13.4948C43.9912 13.7811 43.854 14.1518 43.854 14.532C43.996 16.4261 42.5737 18.0746 40.682 18.2142C38.788 18.3562 37.1394 16.9339 36.9999 15.0422C36.9902 14.9243 36.9878 14.804 36.9926 14.6861C37.0576 12.8233 38.6219 11.3649 40.4847 11.4298C40.5786 11.4323 40.6748 11.4395 40.7687 11.4515C41.2452 11.5309 41.7313 11.3552 42.049 10.9894C42.966 10.034 43.8877 9.07854 44.8768 8.1953C45.5964 7.5816 46.0369 6.92218 45.8058 5.94989Z" fill="#FF2D39"/>
<path d="M30.3499 10.149C30.4438 9.85783 30.5617 9.57625 30.7013 9.3043C33.0791 5.21058 37.7696 3.04458 42.4289 3.89173C43.5649 4.11073 44.2074 4.88086 44.0438 5.83631C43.8801 6.79175 43.0162 7.36213 41.8465 7.14794C38.6433 6.56071 35.4063 7.99027 33.6831 10.7555C33.5411 11.0178 33.3751 11.2657 33.1898 11.4968C32.7349 12.0335 31.9768 12.1995 31.339 11.8987C30.6844 11.6219 30.3379 11.09 30.3499 10.149Z" fill="#FF2D39"/>
</svg>
