<?xml version="1.0" standalone="no"?>
<!DOCTYPE svg PUBLIC "-//W3C//DTD SVG 20010904//EN"
 "http://www.w3.org/TR/2001/REC-SVG-20010904/DTD/svg10.dtd">
<svg version="1.0" xmlns="http://www.w3.org/2000/svg"
 width="32.000000pt" height="33.000000pt" viewBox="0 0 32.000000 33.000000"
 preserveAspectRatio="xMidYMid meet">

<g transform="translate(0.000000,33.000000) scale(0.100000,-0.100000)"
fill="#000000" stroke="none">
<path d="M295 253 c-18 -43 -64 -95 -77 -87 -5 3 -29 -4 -54 -16 -25 -12 -47
-20 -50 -17 -3 3 10 20 30 37 20 18 33 37 30 42 -3 5 -15 2 -25 -8 -18 -16
-19 -16 -19 1 0 15 -3 16 -12 7 -7 -7 -24 -12 -40 -12 -33 0 -58 -34 -32 -44
9 -3 25 -6 36 -6 16 0 18 -3 9 -13 -7 -10 -7 -17 0 -24 8 -8 7 -17 -1 -33
l-12 -23 36 22 c20 13 36 18 36 12 0 -6 -4 -11 -10 -11 -5 0 -10 -11 -10 -25
0 -14 6 -25 13 -25 23 1 57 38 57 63 0 17 10 33 29 46 33 24 68 76 81 121 12
42 3 38 -15 -7z"/>
<path d="M184 254 c-13 -19 -14 -28 -5 -37 17 -17 63 11 68 41 4 33 -41 30
-63 -4z"/>
</g>
</svg>
