<svg width="66" height="19" viewBox="0 0 66 19" fill="none" xmlns="http://www.w3.org/2000/svg">
<g clip-path="url(#clip0_81_171)">
<path d="M16.4625 0.5H0.00292969V16.9921L16.4625 0.5Z" fill="#0E0C0F"/>
<path d="M1.47266 18.4999H17.9265V2.01074L1.47266 18.4999Z" fill="#0E0C0F"/>
<path d="M27.4887 0.52311H21.666V18.4971H25.2616V11.7836H27.5665C31.7671 11.7836 34.1757 9.76143 34.1757 6.24001V6.14179C34.1728 2.57126 31.7354 0.52311 27.4887 0.52311ZM30.6579 6.24001C30.6579 8.10616 29.5631 9.09124 27.4887 9.09124H25.2616V3.38878H27.4887C29.6466 3.38878 30.6579 4.25542 30.6579 6.1389V6.24001ZM42.9313 7.58329H39.9983V3.44078H47.8032V0.52311H36.4287V18.4971H42.865C46.9734 18.4971 49.3301 16.5039 49.3301 13.0286V12.9218C49.3301 9.48411 47.0598 7.58329 42.9313 7.58329ZM39.9897 10.2785H42.6431C44.8068 10.2785 45.8555 11.1452 45.8555 12.9044V13.0026C45.8555 14.7648 44.8184 15.6574 42.767 15.6574H39.9983L39.9897 10.2785ZM58.2096 9.10568L65.637 0.5H61.69L55.1787 8.24193V0.52311H51.5831V18.4971H55.1787V10.5414L61.713 18.4971H65.9972L58.2096 9.10568Z" fill="#0E0C0F"/>
</g>
<defs>
<clipPath id="clip0_81_171">
<rect width="66" height="18" fill="white" transform="translate(0 0.5)"/>
</clipPath>
</defs>
</svg>
