<?xml version="1.0" standalone="no"?>
<!DOCTYPE svg PUBLIC "-//W3C//DTD SVG 20010904//EN"
 "http://www.w3.org/TR/2001/REC-SVG-20010904/DTD/svg10.dtd">
<svg version="1.0" xmlns="http://www.w3.org/2000/svg"
 width="32.000000pt" height="33.000000pt" viewBox="0 0 32.000000 33.000000"
 preserveAspectRatio="xMidYMid meet">

<g transform="translate(0.000000,33.000000) scale(0.100000,-0.100000)"
fill="#000000" stroke="none">
<path d="M133 268 c2 -7 14 -13 27 -13 13 0 25 6 28 13 2 8 -7 12 -28 12 -21
0 -30 -4 -27 -12z"/>
<path d="M20 150 c0 -22 5 -40 10 -40 6 0 10 -11 10 -24 0 -45 23 -56 116 -56
101 0 124 9 124 50 0 17 5 30 10 30 6 0 10 18 10 40 0 22 -4 40 -10 40 -5 0
-7 -7 -4 -15 4 -8 1 -15 -4 -15 -6 0 -12 -10 -14 -22 -3 -22 -7 -23 -108 -23
-101 0 -105 1 -108 23 -2 12 -8 22 -14 22 -5 0 -8 7 -4 15 3 8 1 15 -4 15 -6
0 -10 -18 -10 -40z"/>
<path d="M71 174 c-1 -6 6 -17 14 -24 12 -10 18 -10 30 0 8 7 15 18 14 24 0 7
-2 6 -6 -1 -2 -7 -13 -13 -23 -13 -10 0 -21 6 -23 13 -4 7 -6 8 -6 1z"/>
<path d="M191 174 c-1 -6 6 -17 14 -24 12 -10 18 -10 30 0 8 7 15 18 14 24 0
7 -2 6 -6 -1 -2 -7 -13 -13 -23 -13 -10 0 -21 6 -23 13 -4 7 -6 8 -6 1z"/>
<path d="M146 153 c-3 -3 -6 -12 -6 -20 0 -15 36 -18 45 -4 7 12 -29 33 -39
24z"/>
</g>
</svg>
