<svg width="80" height="19" viewBox="0 0 80 19" fill="none" xmlns="http://www.w3.org/2000/svg">
<mask id="mask0_158_1112" style="mask-type:alpha" maskUnits="userSpaceOnUse" x="0" y="0" width="80" height="19">
<path fill-rule="evenodd" clip-rule="evenodd" d="M0.902344 0.94043H79.9023V18.9404H0.902344V0.94043Z" fill="white"/>
</mask>
<g mask="url(#mask0_158_1112)">
<path fill-rule="evenodd" clip-rule="evenodd" d="M6.22415 9.59274C8.09783 9.59274 9.29723 9.26967 10.172 8.54851C10.9463 7.90213 11.3209 7.03209 11.3209 5.96301C11.3209 4.64518 10.7466 3.75029 9.8473 3.15362C8.87257 2.50701 7.67356 2.33328 5.64984 2.33328H2.42712L2.42673 9.59274H6.22415ZM0.902729 0.94043L5.74949 0.940894C7.84823 0.940894 9.47226 1.18964 10.7467 2.01021C11.9707 2.80569 12.845 4.09821 12.845 5.88846C12.8454 7.52936 12.0957 8.87158 10.9463 9.69191C10.122 10.289 9.14761 10.5873 8.02324 10.7612L14.069 18.9402L12.2203 18.9404L6.32379 10.8853H2.42678L2.42639 18.9402H0.902344L0.902729 0.94043Z" fill="#474766"/>
<path fill-rule="evenodd" clip-rule="evenodd" d="M31.6252 6.56555H32.7223L32.7218 18.9405H31.625L31.6252 6.56555Z" fill="#474766"/>
<path fill-rule="evenodd" clip-rule="evenodd" d="M37.4126 16.3884C38.7446 17.2069 40.453 17.6405 42.086 17.6405C44.1718 17.6405 45.5038 16.9421 45.5042 15.5219C45.5038 13.7405 43.4433 13.5477 41.5088 13.2585C39.4484 12.9457 37.1113 12.3678 37.1113 9.96024C37.1116 7.72104 39.0964 6.56555 41.9109 6.56555C43.5188 6.56555 45.1525 6.95064 46.3587 7.5768L46.3585 9.06953C45.0519 8.2752 43.3933 7.86596 41.8608 7.86596C39.9259 7.86596 38.5942 8.51559 38.5937 9.86431C38.5942 11.5252 40.6043 11.6938 42.4634 11.983C44.6999 12.32 46.9864 12.8974 46.9864 15.4013C46.9864 17.7369 45.0011 18.9405 42.011 18.9405C40.3776 18.9405 38.6689 18.5791 37.4126 17.9053V16.3884Z" fill="#474766"/>
<path fill-rule="evenodd" clip-rule="evenodd" d="M51.5616 14.6095L51.5618 8.02918H49.1797L49.1801 6.77081H51.5618V3.43233L52.9959 3.19055V6.77127H56.8602V8.02918H52.9959V14.3677C52.9959 16.158 53.2625 17.6338 55.1588 17.6342C55.7903 17.6338 56.3981 17.4647 56.8602 17.1983L56.86 18.5535C56.3981 18.7711 55.6934 18.9404 54.9642 18.9404C54.0894 18.9404 53.0926 18.6984 52.4122 17.9241C51.8044 17.2227 51.5616 16.158 51.5616 14.6095Z" fill="#474766"/>
<path fill-rule="evenodd" clip-rule="evenodd" d="M66.6998 16.2732V13.6062C65.8028 13.3421 64.7649 13.1738 63.8207 13.1738C62.1694 13.1738 60.4702 13.7019 60.4707 15.4564C60.4702 16.9942 61.768 17.6668 63.1835 17.6673C64.5053 17.6673 65.7793 17.0906 66.6998 16.2732ZM60.2578 18.1234C59.503 17.5469 59.0547 16.682 59.0547 15.5765C59.0547 14.3269 59.621 13.4378 60.5176 12.837C61.3908 12.2608 62.5706 12.0445 63.7032 12.0443C64.7651 12.0443 65.7321 12.2127 66.6998 12.477V11.1076C66.6998 9.95396 66.4874 9.20935 65.8506 8.63242C65.3074 8.15187 64.5057 7.88733 63.4671 7.88733C62.0989 7.88733 60.8481 8.34395 59.9044 9.04096V7.62326C60.8481 7.02217 62.1458 6.56602 63.6092 6.56555C65.0012 6.56602 66.1335 6.92625 66.9123 7.59933C67.6907 8.27218 68.0921 9.32919 68.0921 10.7713V15.8891C68.0916 16.8985 68.3274 17.6436 69.2716 17.6431C69.5545 17.6431 69.8143 17.5713 70.0268 17.451L70.0266 18.6769C69.7672 18.7967 69.4134 18.8687 69.0117 18.8687C68.0207 18.8687 67.2424 18.3882 66.9121 17.4747H66.8648C65.992 18.244 64.5762 18.9405 62.9951 18.9405C62.004 18.9405 61.013 18.7006 60.2578 18.1234Z" fill="#474766"/>
<path fill-rule="evenodd" clip-rule="evenodd" d="M74.6043 14.61L74.6048 8.02918H72.2227L72.2229 6.77127H74.6048V3.43256L76.0387 3.19055V6.77127H79.9032V8.02918H76.0387V14.3677C76.0387 16.1584 76.3055 17.6342 78.2017 17.6342C78.8333 17.6342 79.441 17.4647 79.9032 17.1987L79.9027 18.5535C79.441 18.7714 78.7363 18.9404 78.0072 18.9404C77.1321 18.9404 76.1356 18.6987 75.4549 17.9243C74.8474 17.2229 74.6043 16.1584 74.6043 14.61Z" fill="#474766"/>
<path fill-rule="evenodd" clip-rule="evenodd" d="M24.1477 10.9933C24.4841 11.489 24.6807 12.0945 24.6807 12.7534C24.6807 14.4386 23.4074 15.7869 21.7495 15.7869C20.0918 15.7869 18.8183 14.4384 18.8183 12.7534C18.8183 11.0681 20.0918 9.71962 21.7499 9.71962C22.4893 9.71962 23.1512 9.9895 23.6586 10.4366L25.8135 7.82207C24.7115 7.0303 23.3138 6.56602 21.7499 6.56555C17.9774 6.56555 15.1662 9.2623 15.166 12.7534C15.166 16.2442 17.9774 18.9405 21.7495 18.9405C25.5215 18.941 28.3327 16.2447 28.3327 12.7536C28.3327 11.3032 27.8466 9.99136 27.0091 8.95154L24.1477 10.9933Z" fill="#2589FF"/>
<path fill-rule="evenodd" clip-rule="evenodd" d="M32.1055 4.3156L34.9166 2.1426C34.58 1.68969 34.1856 1.2858 33.7419 0.94043L31.625 3.72265C31.8071 3.89615 31.9677 4.09566 32.1055 4.3156Z" fill="#2589FF"/>
</g>
</svg>
