<svg width="84" height="22" viewBox="0 0 84 22" fill="none" xmlns="http://www.w3.org/2000/svg">
<g clip-path="url(#clip0_158_1060)">
<path d="M26.9023 16.491L27.9481 14.1099C29.0782 14.9367 30.5795 15.3666 32.0638 15.3666C33.1602 15.3666 33.8517 14.9532 33.8517 14.3249C33.8349 12.5721 27.2903 13.9446 27.2397 9.54615C27.2228 7.31386 29.2469 5.59418 32.1144 5.59418C33.818 5.59418 35.5216 6.00757 36.7361 6.95009L35.7578 9.38079C34.6445 8.68631 33.2614 8.19024 31.9457 8.19024C31.0517 8.19024 30.4614 8.60363 30.4614 9.13276C30.4782 10.8524 37.0734 9.90993 37.1409 14.1099C37.1409 16.3918 35.1674 17.9958 32.3337 17.9958C30.259 17.9958 28.3529 17.5162 26.9023 16.491ZM67.0301 13.2501C66.5072 14.143 65.5288 14.7548 64.3987 14.7548C62.7288 14.7548 61.3795 13.432 61.3795 11.795C61.3795 10.158 62.7288 8.83512 64.3987 8.83512C65.5288 8.83512 66.5072 9.44694 67.0301 10.3398L69.9144 8.76898C68.8349 6.88394 66.7602 5.59418 64.3987 5.59418C60.9072 5.59418 58.0734 8.37213 58.0734 11.795C58.0734 15.2178 60.9072 17.9958 64.3987 17.9958C66.777 17.9958 68.8349 16.7225 69.9144 14.821L67.0301 13.2501ZM38.5915 0.45166H42.2011V17.7643H38.5915V0.45166ZM71.3313 0.45166V17.7643H74.9409V12.5721L79.2252 17.7643H83.8469L78.3987 11.5965L83.4421 5.84221H79.0228L74.9409 10.621V0.45166H71.3313ZM52.9288 13.2832C52.406 14.1265 51.3264 14.7548 50.112 14.7548C48.4421 14.7548 47.0927 13.432 47.0927 11.795C47.0927 10.158 48.4421 8.83512 50.112 8.83512C51.3264 8.83512 52.406 9.49654 52.9288 10.3564V13.2832ZM52.9288 5.84221V7.24772C52.3385 6.27213 50.871 5.59418 49.3361 5.59418C46.165 5.59418 43.6686 8.33906 43.6686 11.7784C43.6686 15.2178 46.165 17.9958 49.3361 17.9958C50.871 17.9958 52.3385 17.3178 52.9288 16.3422V17.7477H56.5385V5.84221H52.9288Z" fill="black"/>
<path d="M4.58778 13.2665C4.58778 14.4736 3.5926 15.4492 2.36127 15.4492C1.12995 15.4492 0.134766 14.4736 0.134766 13.2665C0.134766 12.0595 1.12995 11.0839 2.36127 11.0839H4.58778V13.2665ZM5.70103 13.2665C5.70103 12.0595 6.69621 11.0839 7.92754 11.0839C9.15886 11.0839 10.154 12.0595 10.154 13.2665V18.7232C10.154 19.9303 9.15886 20.9059 7.92754 20.9059C6.69621 20.9059 5.70103 19.9303 5.70103 18.7232V13.2665Z" fill="#E01E5A"/>
<path d="M7.92683 4.50281C6.6955 4.50281 5.70032 3.52722 5.70032 2.32013C5.70032 1.11304 6.6955 0.137451 7.92683 0.137451C9.15815 0.137451 10.1533 1.11304 10.1533 2.32013V4.50281H7.92683ZM7.92683 5.61068C9.15815 5.61068 10.1533 6.58627 10.1533 7.79336C10.1533 9.00044 9.15815 9.97603 7.92683 9.97603H2.34369C1.11237 9.97603 0.117188 9.00044 0.117188 7.79336C0.117188 6.58627 1.11237 5.61068 2.34369 5.61068H7.92683Z" fill="#36C5F0"/>
<path d="M16.8495 7.79336C16.8495 6.58627 17.8446 5.61068 19.076 5.61068C20.3073 5.61068 21.3025 6.58627 21.3025 7.79336C21.3025 9.00044 20.3073 9.97603 19.076 9.97603H16.8495V7.79336ZM15.7362 7.79336C15.7362 9.00044 14.741 9.97603 13.5097 9.97603C12.2784 9.97603 11.2832 9.00044 11.2832 7.79336V2.32013C11.2832 1.11304 12.2784 0.137451 13.5097 0.137451C14.741 0.137451 15.7362 1.11304 15.7362 2.32013V7.79336Z" fill="#2EB67D"/>
<path d="M13.5097 16.5406C14.741 16.5406 15.7362 17.5161 15.7362 18.7232C15.7362 19.9303 14.741 20.9059 13.5097 20.9059C12.2784 20.9059 11.2832 19.9303 11.2832 18.7232V16.5406H13.5097ZM13.5097 15.4492C12.2784 15.4492 11.2832 14.4736 11.2832 13.2665C11.2832 12.0595 12.2784 11.0839 13.5097 11.0839H19.0928C20.3242 11.0839 21.3193 12.0595 21.3193 13.2665C21.3193 14.4736 20.3242 15.4492 19.0928 15.4492H13.5097Z" fill="#ECB22E"/>
</g>
<defs>
<clipPath id="clip0_158_1060">
<rect width="84" height="21" fill="white" transform="translate(0 0.038208)"/>
</clipPath>
</defs>
</svg>
