<svg width="28" height="29" viewBox="0 0 28 29" fill="none" xmlns="http://www.w3.org/2000/svg">
<path d="M14 17.375C15.3562 17.375 16.4664 16.2703 16.4664 14.9086C16.4664 14.3727 16.2914 13.875 16.0016 13.4703C15.5531 12.8523 14.8258 12.4422 14.0055 12.4422C13.1852 12.4422 12.4578 12.8469 12.0094 13.4703C11.7195 13.875 11.5445 14.3727 11.5445 14.9086C11.5391 16.2703 12.6438 17.375 14 17.375Z" fill="black"/>
<path d="M19.3813 11.9008V9.52734H19.075L17.0078 9.53281L17.0187 11.9062L19.3813 11.9008Z" fill="black"/>
<path d="M17.8281 14.9141C17.8281 17.025 16.1109 18.7422 14 18.7422C11.8891 18.7422 10.1719 17.025 10.1719 14.9141C10.1719 14.4055 10.2758 13.9187 10.4563 13.4758H8.36719V19.207C8.36719 19.9453 8.96875 20.5469 9.70703 20.5469H18.293C19.0312 20.5469 19.6328 19.9453 19.6328 19.207V13.4758H17.5438C17.7297 13.9187 17.8281 14.4055 17.8281 14.9141Z" fill="black"/>
<path d="M14 0.914062C6.26719 0.914062 0 7.18125 0 14.9141C0 22.6469 6.26719 28.9141 14 28.9141C21.7328 28.9141 28 22.6469 28 14.9141C28 7.18125 21.7328 0.914062 14 0.914062ZM21 19.207C21 20.7 19.7859 21.9141 18.293 21.9141H9.70703C8.21406 21.9141 7 20.7 7 19.207V10.6156C7 9.12266 8.21406 7.90859 9.70703 7.90859H18.293C19.7859 7.90859 21 9.12266 21 10.6156V19.207Z" fill="black"/>
</svg>
