<svg width="28" height="29" viewBox="0 0 28 29" fill="none" xmlns="http://www.w3.org/2000/svg">
<path d="M14 0.914062C6.26792 0.914062 0 7.18198 0 14.9141C0 22.6461 6.26792 28.9141 14 28.9141C21.7321 28.9141 28 22.6461 28 14.9141C28 7.18198 21.7321 0.914062 14 0.914062ZM19.3842 16.7093C19.3842 16.7093 20.6223 17.9314 20.9271 18.4986C20.9358 18.5103 20.9402 18.522 20.9431 18.5278C21.0671 18.7364 21.0963 18.8982 21.035 19.0193C20.9329 19.2205 20.5829 19.3197 20.4633 19.3284H18.2758C18.1242 19.3284 17.8062 19.2891 17.4212 19.0236C17.1252 18.8166 16.8335 18.4768 16.5492 18.1457C16.1248 17.6528 15.7573 17.227 15.3869 17.227C15.3398 17.2269 15.2931 17.2343 15.2483 17.2489C14.9683 17.3393 14.6096 17.7389 14.6096 18.8034C14.6096 19.1359 14.3471 19.327 14.1619 19.327H13.16C12.8187 19.327 11.041 19.2074 9.46604 17.5464C7.53812 15.512 5.80271 11.4316 5.78812 11.3936C5.67875 11.1297 5.90479 10.9882 6.15125 10.9882H8.36062C8.65521 10.9882 8.75146 11.1676 8.81854 11.3266C8.89729 11.5118 9.18604 12.2482 9.66 13.0766C10.4285 14.427 10.8996 14.9753 11.2773 14.9753C11.3481 14.9745 11.4177 14.9565 11.48 14.9228C11.9729 14.6486 11.881 12.8914 11.8592 12.5268C11.8592 12.4582 11.8577 11.7407 11.6054 11.3966C11.4246 11.1472 11.1169 11.0524 10.9302 11.0174C11.0058 10.9131 11.1053 10.8286 11.2204 10.7709C11.5587 10.6018 12.1683 10.577 12.7735 10.577H13.1104C13.7667 10.5857 13.9358 10.628 14.1735 10.6878C14.6548 10.803 14.665 11.1136 14.6227 12.1768C14.6096 12.4786 14.5965 12.8199 14.5965 13.2224C14.5965 13.3099 14.5921 13.4032 14.5921 13.5024C14.5775 14.0434 14.56 14.6574 14.9421 14.9097C14.9919 14.9409 15.0495 14.9576 15.1083 14.9578C15.241 14.9578 15.6406 14.9578 16.7227 13.1014C17.0564 12.5038 17.3464 11.8829 17.5904 11.2434C17.6123 11.2055 17.6765 11.0889 17.7523 11.0436C17.8083 11.0151 17.8703 11.0006 17.9331 11.0014H20.5304C20.8133 11.0014 21.0073 11.0436 21.0437 11.153C21.1079 11.3266 21.0321 11.8559 19.8465 13.4616L19.3171 14.1601C18.2423 15.5689 18.2423 15.6403 19.3842 16.7093Z" fill="black"/>
</svg>
