<svg width="28" height="29" viewBox="0 0 28 29" fill="none" xmlns="http://www.w3.org/2000/svg">
<path d="M14 0.914062C11.2311 0.914062 8.5243 1.73514 6.22202 3.27348C3.91974 4.81182 2.12532 6.99832 1.0657 9.55648C0.00607167 12.1146 -0.271181 14.9296 0.269009 17.6453C0.809199 20.3611 2.14258 22.8555 4.10051 24.8136C6.05845 26.7715 8.553 28.1048 11.2688 28.6451C13.9844 29.1853 16.7995 28.9079 19.3576 27.8483C21.9158 26.7887 24.1022 24.9944 25.6406 22.6921C27.1789 20.3898 28 17.6831 28 14.914C28 11.201 26.5249 7.64008 23.8996 5.01457C21.274 2.38905 17.713 0.914062 14 0.914062ZM20.8775 10.5041L18.585 21.3365C18.41 22.1065 17.955 22.2815 17.3075 21.9315L13.8075 19.3415L12.0575 20.969C11.9751 21.0767 11.8692 21.1642 11.7479 21.2249C11.6267 21.2854 11.4931 21.3176 11.3575 21.319L11.6025 17.819L18.0775 11.9566C18.375 11.7116 18.0775 11.5716 17.6575 11.8166L9.7125 16.804L6.2125 15.719C5.46 15.4915 5.4425 14.9665 6.37 14.6165L19.8625 9.36655C20.5275 9.17405 21.0875 9.55905 20.8775 10.5041Z" fill="black"/>
</svg>
