<svg width="31" height="25" viewBox="0 0 31 25" fill="none" xmlns="http://www.w3.org/2000/svg">
<path d="M2.36483 10.7654L20.0662 3.47217C21.8135 2.71246 27.7393 0.281379 27.7393 0.281379C27.7393 0.281379 30.4742 -0.78222 30.2463 1.80081C30.1703 2.8644 29.5626 6.587 28.9548 10.6135L27.0555 22.541C27.0555 22.541 26.9036 24.2883 25.6121 24.5922C24.3205 24.8961 22.1933 23.5286 21.8135 23.2247C21.5096 22.9968 16.1156 19.5781 14.1404 17.9067C13.6086 17.4509 13.0008 16.5392 14.2164 15.4756C16.9513 12.9686 20.2181 9.85377 22.1933 7.87851C23.105 6.96686 24.0167 4.83966 20.2181 7.42268L9.50614 14.64C9.50614 14.64 8.2906 15.3997 6.01146 14.7159C3.73232 14.0322 1.07332 13.1205 1.07332 13.1205C1.07332 13.1205 -0.749992 11.981 2.36483 10.7654Z" fill="#28A8EA"/>
</svg>
