<svg width="31" height="29" viewBox="0 0 31 29" fill="none" xmlns="http://www.w3.org/2000/svg">
<g clip-path="url(#clip0_81_160)">
<path d="M16.9056 18.1316V15.9673H21.077C21.077 16.1726 21.077 16.3591 21.077 16.5456C21.077 18.8763 21.0649 21.2056 21.085 23.535C21.0891 24.0596 21.1427 24.6003 21.2756 25.1062C21.6432 26.507 22.8185 27.1833 24.2394 26.8653C25.7676 26.5231 26.9335 25.129 26.9872 23.4343C27.0408 21.7168 26.9979 19.9967 26.9952 18.2765C26.9952 18.247 26.9738 18.2188 26.9402 18.1329H24.8311V15.9673H29.2748C29.2748 17.7304 29.2654 19.4761 29.2775 21.2217C29.2895 22.9701 29.3204 24.7171 29.3445 26.5124H31.0002V28.5935H27.5869C27.489 27.9803 27.3883 27.3523 27.2756 26.6439C27.171 26.7767 27.0945 26.8612 27.0315 26.9552C25.9514 28.5948 24.3239 29.2778 22.4106 28.894C20.5363 28.5183 19.2912 27.2638 18.9356 25.3504C18.8457 24.8647 18.8109 24.3615 18.8055 23.8664C18.7907 22.1475 18.8001 20.4274 18.8001 18.7086V18.1316H16.9043H16.9056Z" fill="#0E0C0F"/>
<path d="M27.6528 4.90826V2.77482C26.6211 2.11332 25.5128 1.93352 24.3563 2.09051C21.8071 2.43535 20.401 4.80896 20.6156 7.07658C20.7968 8.98594 21.7373 10.4002 23.613 10.9919C25.3424 11.538 26.876 11.0684 28.164 9.79638C28.2767 9.68501 28.3827 9.56693 28.5129 9.43007C29.0858 9.86749 29.6426 10.2915 30.2128 10.7262C29.1005 12.1861 27.6918 13.0569 25.9153 13.3025C22.2458 13.811 18.9465 11.4266 18.2918 7.80249C17.5713 3.8147 20.7136 0.0295249 24.7695 5.60327e-06C26.7579 -0.014754 28.5894 0.625277 29.7982 1.76579V4.90826H27.6528Z" fill="#0E0C0F"/>
<path d="M10.7566 9.63268C11.822 6.54389 12.8859 3.4551 13.9606 0.338135H17.6892V2.44474H15.6391C14.292 6.04609 12.9557 9.61389 11.6167 13.1938H9.54107C8.26511 9.6367 6.98781 6.07829 5.69709 2.48231H3.49805V0.343502H7.46546C8.52406 3.42692 9.59071 6.53316 10.656 9.63939C10.6896 9.6367 10.7231 9.63402 10.7553 9.63134L10.7566 9.63268Z" fill="#0E0C0F"/>
<path d="M14.1575 26.5688V28.6016H4.4248V26.554H6.4548V17.9465H4.4248V15.9714H8.3533C8.40295 16.7483 8.45259 17.5077 8.50089 18.2658C9.19455 17.3641 9.97408 16.6329 11.0219 16.2156C12.1248 15.7768 13.272 15.9553 14.4446 15.9164V19.7606H12.3341V17.8955C11.7196 17.8861 11.183 18.023 10.6946 18.3181C9.49375 19.0454 8.81753 20.1336 8.7585 21.5196C8.69276 23.0909 8.7424 24.6675 8.74508 26.2414C8.74508 26.334 8.77192 26.4266 8.79338 26.5701H14.1588L14.1575 26.5688Z" fill="#0E0C0F"/>
<path d="M2.16416 28.6579H0V26.4802H2.16416V28.6579Z" fill="#0E0C0F"/>
</g>
<defs>
<clipPath id="clip0_81_160">
<rect width="31" height="29" fill="white"/>
</clipPath>
</defs>
</svg>
