<svg width="35" height="21" viewBox="0 0 35 21" fill="none" xmlns="http://www.w3.org/2000/svg">
<path d="M33.3246 16.1374C32.5843 15.2331 31.743 14.4226 30.9295 13.6388C30.6402 13.3601 30.3411 13.0719 30.0528 12.7853C29.225 11.9617 29.1949 11.6523 29.8503 10.7168C30.3037 10.0719 30.7844 9.42622 31.2494 8.80175C31.6711 8.23518 32.1072 7.64928 32.5251 7.06148L32.611 6.94062C33.4098 5.81578 34.236 4.65264 34.6757 3.24952C34.7898 2.87933 34.9097 2.33457 34.6356 1.87905C34.3617 1.42391 33.8303 1.28506 33.4544 1.2202C33.2684 1.18811 33.0838 1.18373 32.9124 1.18373L27.6808 1.17992L27.6376 1.17954C26.8466 1.17954 26.3135 1.55886 26.0081 2.33933C25.7165 3.08504 25.3961 3.87913 25.0306 4.63417C24.3031 6.13768 23.3792 7.86938 22.0423 9.31365L21.9858 9.37508C21.8279 9.54774 21.6491 9.74326 21.5184 9.74326C21.4983 9.74326 21.4765 9.73936 21.4518 9.73145C21.1749 9.62164 20.989 8.93946 20.9975 8.62213C20.9975 8.61775 20.9976 8.61337 20.9976 8.60899L20.994 2.45571C20.994 2.43438 20.9925 2.41324 20.9898 2.39209C20.8567 1.39182 20.5619 0.769158 19.448 0.54716C19.4185 0.54116 19.3882 0.538208 19.3581 0.538208H13.9183C13.032 0.538208 12.5437 0.904776 12.0847 1.45344C11.9608 1.6001 11.7028 1.90543 11.8307 2.27581C11.9604 2.65171 12.3814 2.73209 12.5185 2.75819C13.1991 2.88999 13.5827 3.31361 13.6914 4.05379C13.8811 5.33911 13.9044 6.71101 13.7647 8.37128C13.7258 8.8327 13.6488 9.18908 13.5219 9.49355C13.4924 9.5646 13.3879 9.7965 13.2813 9.7966C13.2474 9.7966 13.1494 9.78307 12.9709 9.65793C12.5489 9.36374 12.2402 8.94394 11.8803 8.42537C10.6558 6.66434 9.62812 4.72436 8.73811 2.49324C8.40803 1.67191 7.79158 1.21211 7.00152 1.19858C6.13342 1.18515 5.34636 1.17868 4.5957 1.17868C3.77551 1.17868 3.01512 1.18639 2.27261 1.20211C1.63697 1.21353 1.1973 1.40744 0.965952 1.77886C0.734233 2.15057 0.7493 2.63885 1.01078 3.2299C3.10393 7.96538 5.00177 11.4085 7.16455 14.3944C8.68 16.4837 10.2 17.9299 11.9477 18.9452C13.7889 20.0171 15.8523 20.5382 18.2556 20.5382C18.528 20.5382 18.8097 20.5314 19.0937 20.5179C20.4902 20.4487 21.0083 19.9343 21.0738 18.5506C21.105 17.8435 21.181 17.1019 21.5226 16.4694C21.7382 16.0709 21.9392 16.0709 22.0053 16.0709C22.1326 16.0709 22.2904 16.1305 22.4598 16.2422C22.7638 16.4442 23.0244 16.7146 23.2381 16.9509C23.4392 17.1754 23.6381 17.4021 23.8371 17.629C24.2667 18.1186 24.7109 18.6248 25.1749 19.1049C26.1905 20.1564 27.3093 20.6189 28.5943 20.5185H33.3908C33.401 20.5185 33.4113 20.5181 33.4215 20.5174C33.8995 20.4854 34.3134 20.2155 34.5572 19.7773C34.8592 19.2343 34.8531 18.5417 34.5409 17.9239C34.1867 17.2255 33.7272 16.6287 33.3246 16.1374Z" fill="#5181B8"/>
</svg>
