<svg width="134" height="31" viewBox="0 0 134 31" fill="none" xmlns="http://www.w3.org/2000/svg">
<g clip-path="url(#clip0_158_1074)">
<path d="M77.9399 12.3467H72.7044V12.8988C74.342 12.8988 74.6053 13.2477 74.6053 15.3123V19.0343C74.6053 21.0987 74.3423 21.4767 72.7044 21.4767C71.447 21.3024 70.5985 20.6334 69.4286 19.3541L68.0834 17.9004C69.8966 17.5801 70.8616 16.4465 70.8616 15.1669C70.8616 13.568 69.4873 12.3467 66.9132 12.3467H61.7656V12.8988C63.4032 12.8988 63.6665 13.2477 63.6665 15.3123V19.0343C63.6665 21.0987 63.4032 21.4767 61.7656 21.4767V22.0291H67.5859V21.4767C65.9482 21.4767 65.6849 21.0987 65.6849 19.0343V17.9878H66.182L69.4286 22.0291H77.9399C82.1223 22.0291 83.9357 19.8196 83.9357 17.1732C83.9357 14.5273 82.1225 12.3467 77.9399 12.3467ZM65.6852 17.0858V13.2191H66.8842C68.2001 13.2191 68.7853 14.1204 68.7853 15.1671C68.7853 16.185 68.2001 17.086 66.8842 17.086L65.6852 17.0858ZM78.0278 21.1278H77.8229C76.7702 21.1278 76.6239 20.8663 76.6239 19.5287V13.2191C76.6239 13.2191 77.9108 13.2191 78.0278 13.2191C81.0696 13.2191 81.625 15.4286 81.625 17.1443C81.625 18.9178 81.0693 21.1278 78.0278 21.1278Z" fill="#00749A"/>
<path d="M45.4758 18.1622L47.494 12.2302C48.0792 10.5147 47.8159 10.0206 45.944 10.0206V9.43884H51.4426V10.0206C49.6001 10.0206 49.1614 10.4567 48.4302 12.5793L45.0956 22.5235H44.7155L41.7319 13.4223L38.6904 22.5235H38.3101L35.0637 12.5793C34.3617 10.4567 33.8938 10.0206 32.1973 10.0206V9.43884H38.6904V10.0206C36.9646 10.0206 36.4964 10.4276 37.1109 12.2302L39.0704 18.1622L42.0245 9.43884H42.5804L45.4758 18.1622Z" fill="#00749A"/>
<path d="M55.4198 22.4069C52.2027 22.4069 49.5703 20.0519 49.5703 17.173C49.5703 14.3236 52.203 11.9681 55.4198 11.9681C58.6372 11.9681 61.2694 14.3236 61.2694 17.173C61.2694 20.0519 58.6372 22.4069 55.4198 22.4069ZM55.4198 12.8702C52.7293 12.8702 51.7931 15.2832 51.7931 17.1732C51.7931 19.0926 52.7293 21.4767 55.4198 21.4767C58.1402 21.4767 59.0761 19.0926 59.0761 17.1732C59.0761 15.2832 58.1402 12.8702 55.4198 12.8702Z" fill="#00749A"/>
<path d="M91.1607 21.4476V22.0291H84.4629V21.4476C86.4227 21.4476 86.7736 20.9535 86.7736 18.0454V13.3934C86.7736 10.4853 86.4227 10.0204 84.4629 10.0204V9.4386H90.5171C93.5295 9.4386 95.1972 10.9797 95.1972 13.0445C95.1972 15.0509 93.5295 16.6208 90.5171 16.6208H88.8499V18.0451C88.8499 20.9535 89.2009 21.4476 91.1607 21.4476ZM90.5171 10.4853H88.8499V15.545H90.5171C92.1552 15.545 92.9155 14.4111 92.9155 13.0445C92.9155 11.6489 92.1552 10.4853 90.5171 10.4853Z" fill="#464342"/>
<path d="M115.289 19.2961L115.143 19.8193C114.88 20.7789 114.558 21.1278 112.481 21.1278H112.072C110.551 21.1278 110.288 20.7789 110.288 18.7145V17.3772C112.569 17.3772 112.745 17.5804 112.745 19.0926H113.301V14.7599H112.745C112.745 16.2719 112.569 16.4754 110.288 16.4754V13.2191H111.896C113.973 13.2191 114.295 13.568 114.558 14.5276L114.704 15.0797H115.172L114.968 12.3467H106.369V12.8988C108.006 12.8988 108.27 13.2477 108.27 15.3123V19.0343C108.27 20.9229 108.046 21.3986 106.755 21.4664C105.527 21.2801 104.685 20.6146 103.532 19.3541L102.186 17.9004C104 17.5801 104.965 16.4465 104.965 15.1669C104.965 13.568 103.591 12.3467 101.017 12.3467H95.8691V12.8988C97.5068 12.8988 97.7701 13.2477 97.7701 15.3123V19.0343C97.7701 21.0987 97.507 21.4767 95.8691 21.4767V22.0291H101.69V21.4767C100.052 21.4767 99.7885 21.0987 99.7885 19.0343V17.9878H100.286L103.532 22.0291H115.553L115.729 19.2963L115.289 19.2961ZM99.7882 17.0858V13.2191H100.987C102.303 13.2191 102.889 14.1204 102.889 15.1671C102.889 16.185 102.303 17.086 100.987 17.086L99.7882 17.0858Z" fill="#464342"/>
<path d="M121.226 22.4069C120.056 22.4069 119.033 21.7965 118.594 21.4182C118.448 21.5639 118.185 22 118.126 22.4069H117.57V18.3948H118.155C118.389 20.3137 119.735 21.4476 121.46 21.4476C122.396 21.4476 123.157 20.9243 123.157 20.0522C123.157 19.2963 122.484 18.7145 121.285 18.1622L119.618 17.3772C118.448 16.8243 117.57 15.8647 117.57 14.5856C117.57 13.19 118.887 11.998 120.7 11.998C121.665 11.998 122.484 12.3469 122.981 12.7539C123.127 12.6376 123.274 12.3175 123.362 11.9684H123.917V15.3997H123.303C123.098 14.033 122.338 12.8991 120.788 12.8991C119.969 12.8991 119.208 13.3643 119.208 14.0915C119.208 14.8474 119.822 15.2543 121.227 15.8941L122.835 16.6791C124.239 17.3478 124.794 18.4242 124.794 19.2963C124.794 21.1278 123.186 22.4069 121.226 22.4069Z" fill="#464342"/>
<path d="M130.234 22.4069C129.064 22.4069 128.04 21.7965 127.602 21.4182C127.456 21.5639 127.193 22 127.134 22.4069H126.578V18.3948H127.163C127.397 20.3137 128.743 21.4476 130.468 21.4476C131.404 21.4476 132.165 20.9243 132.165 20.0522C132.165 19.2963 131.492 18.7145 130.293 18.1622L128.626 17.3772C127.456 16.8243 126.578 15.8647 126.578 14.5856C126.578 13.19 127.894 11.998 129.708 11.998C130.673 11.998 131.492 12.3469 131.989 12.7539C132.135 12.6376 132.282 12.3175 132.369 11.9684H132.925V15.3997H132.311C132.106 14.033 131.346 12.8991 129.796 12.8991C128.977 12.8991 128.216 13.3643 128.216 14.0915C128.216 14.8474 128.83 15.2543 130.234 15.8941L131.843 16.6791C133.247 17.3478 133.802 18.4242 133.802 19.2963C133.802 21.1278 132.194 22.4069 130.234 22.4069Z" fill="#464342"/>
<path d="M2.94727 15.5378C2.94727 20.6312 5.92474 25.0329 10.2423 27.1188L4.06791 10.3009C3.34971 11.9013 2.94727 13.6723 2.94727 15.5378Z" fill="#464342"/>
<path d="M24.6291 14.8885C24.6291 13.2982 24.0545 12.1969 23.5617 11.3396C22.9056 10.2797 22.2906 9.38205 22.2906 8.32208C22.2906 7.1392 23.193 6.0381 24.4641 6.0381C24.5215 6.0381 24.5759 6.04521 24.6319 6.04839C22.329 3.95099 19.2609 2.67041 15.891 2.67041C11.369 2.67041 7.39062 4.97692 5.07617 8.47046C5.37986 8.47952 5.66605 8.48589 5.90915 8.48589C7.26304 8.48589 9.35877 8.32257 9.35877 8.32257C10.0565 8.28168 10.1388 9.30051 9.44177 9.38254C9.44177 9.38254 8.74057 9.46456 7.9603 9.50521L12.6739 23.4434L15.5066 14.9977L13.4899 9.50472C12.7929 9.46407 12.1326 9.38205 12.1326 9.38205C11.4351 9.3414 11.5168 8.28119 12.2143 8.32208C12.2143 8.32208 14.3519 8.4854 15.6238 8.4854C16.9775 8.4854 19.0734 8.32208 19.0734 8.32208C19.7717 8.28119 19.8537 9.30002 19.1564 9.38205C19.1564 9.38205 18.4538 9.46407 17.675 9.50472L22.3526 23.3374L23.6437 19.0483C24.2033 17.2685 24.6291 15.9901 24.6291 14.8885Z" fill="#464342"/>
<path d="M16.118 16.6635L12.2344 27.8823C13.3939 28.2212 14.6202 28.4066 15.8909 28.4066C17.3982 28.4066 18.8437 28.1475 20.1893 27.6771C20.1545 27.622 20.123 27.5635 20.0971 27.4999L16.118 16.6635Z" fill="#464342"/>
<path d="M27.2492 9.36414C27.3049 9.77402 27.3364 10.214 27.3364 10.6873C27.3364 11.9931 27.0911 13.461 26.3522 15.2964L22.3984 26.6607C26.2466 24.4299 28.8349 20.2853 28.8349 15.5381C28.8351 13.3009 28.2603 11.1971 27.2492 9.36414Z" fill="#464342"/>
<path d="M15.8913 0.538208C7.5717 0.538208 0.802734 7.26698 0.802734 15.5378C0.802734 23.8097 7.5717 30.5382 15.8913 30.5382C24.2107 30.5382 30.9807 23.8097 30.9807 15.5378C30.9804 7.26698 24.2107 0.538208 15.8913 0.538208ZM15.8913 29.8507C7.95321 29.8507 1.49458 23.4299 1.49458 15.5378C1.49458 7.64626 7.95296 1.226 15.8913 1.226C23.8292 1.226 30.2874 7.64626 30.2874 15.5378C30.2874 23.4299 23.8292 29.8507 15.8913 29.8507Z" fill="#464342"/>
</g>
<defs>
<clipPath id="clip0_158_1074">
<rect width="133" height="30" fill="white" transform="translate(0.802734 0.538208)"/>
</clipPath>
</defs>
</svg>
