<svg width="28" height="23" viewBox="0 0 28 23" fill="none" xmlns="http://www.w3.org/2000/svg">
<path d="M7.15781 22.4874C3.20466 22.4874 0 19.2827 0 15.3296V2.48812C0 1.18247 1.05844 0.124023 2.3641 0.124023C3.66975 0.124023 4.72819 1.18247 4.72819 2.48812V13.7954C4.72819 16.4429 6.87441 18.5891 9.5219 18.5891H12.3665C13.443 18.5891 14.3156 19.4618 14.3156 20.5382C14.3156 21.6147 13.4429 22.4874 12.3665 22.4874H7.15781Z" fill="url(#paint0_linear_81_1052)"/>
<path d="M12.9232 0.124182C16.8764 0.124182 20.0811 3.32884 20.0811 7.28199V20.1234C20.0811 21.4291 19.0226 22.4875 17.717 22.4875C16.4113 22.4875 15.3529 21.4291 15.3529 20.1235V8.81619C15.3529 6.1687 13.2066 4.02248 10.5592 4.02248H7.71459C6.6381 4.02248 5.76544 3.14982 5.76544 2.07333C5.76544 0.996847 6.63811 0.124182 7.71459 0.124182H12.9232Z" fill="url(#paint1_linear_81_1052)"/>
<path d="M25.4266 0.124023C26.7323 0.124023 27.7907 1.18247 27.7907 2.48812V20.1233C27.7907 21.4289 26.7323 22.4874 25.4266 22.4874C24.1209 22.4874 23.0625 21.4289 23.0625 20.1233V2.48812C23.0625 1.18247 24.1209 0.124023 25.4266 0.124023Z" fill="url(#paint2_linear_81_1052)"/>
<circle cx="9.92966" cy="11.3349" r="2.24216" fill="#12F287"/>
<defs>
<linearGradient id="paint0_linear_81_1052" x1="7.15781" y1="22.4874" x2="7.15781" y2="0.124023" gradientUnits="userSpaceOnUse">
<stop stop-color="#12F287"/>
<stop offset="1" stop-color="#8BF9C4"/>
</linearGradient>
<linearGradient id="paint1_linear_81_1052" x1="12.9232" y1="0.124182" x2="12.9232" y2="22.4875" gradientUnits="userSpaceOnUse">
<stop stop-color="#12F287"/>
<stop offset="1" stop-color="#8BF9C4"/>
</linearGradient>
<linearGradient id="paint2_linear_81_1052" x1="25.4266" y1="22.4874" x2="25.4266" y2="0.124023" gradientUnits="userSpaceOnUse">
<stop stop-color="#12F287"/>
<stop offset="1" stop-color="#8BF9C4"/>
</linearGradient>
</defs>
</svg>
