<svg width="144" height="30" viewBox="0 0 144 30" fill="none" xmlns="http://www.w3.org/2000/svg">
<path d="M7.15781 23.4874C3.20466 23.4874 0 20.2827 0 16.3296V3.48812C0 2.18247 1.05844 1.12402 2.3641 1.12402C3.66975 1.12402 4.72819 2.18247 4.72819 3.48812V14.7954C4.72819 17.4429 6.87441 19.5891 9.5219 19.5891H12.3665C13.443 19.5891 14.3156 20.4618 14.3156 21.5382C14.3156 22.6147 13.4429 23.4874 12.3665 23.4874H7.15781Z" fill="url(#paint0_linear_81_1051)"/>
<path d="M12.9232 1.12418C16.8764 1.12418 20.0811 4.32884 20.0811 8.28199V21.1234C20.0811 22.4291 19.0226 23.4875 17.717 23.4875C16.4113 23.4875 15.3529 22.4291 15.3529 21.1235V9.81619C15.3529 7.1687 13.2066 5.02248 10.5592 5.02248H7.71459C6.6381 5.02248 5.76544 4.14982 5.76544 3.07333C5.76544 1.99685 6.63811 1.12418 7.71459 1.12418H12.9232Z" fill="url(#paint1_linear_81_1051)"/>
<path d="M25.4266 1.12402C26.7323 1.12402 27.7907 2.18247 27.7907 3.48812V21.1233C27.7907 22.4289 26.7323 23.4874 25.4266 23.4874C24.1209 23.4874 23.0625 22.4289 23.0625 21.1233V3.48812C23.0625 2.18247 24.1209 1.12402 25.4266 1.12402Z" fill="url(#paint2_linear_81_1051)"/>
<circle cx="9.92966" cy="12.3349" r="2.24216" fill="#12F287"/>
<path d="M139.916 3.89668V0.143066H144V3.89668H139.916ZM139.916 22.905V5.83355H144V22.905H139.916Z" fill="#0E0C0F"/>
<path d="M138.053 5.83373V22.9052H134.3V20.7881C133.529 21.629 132.663 22.2846 131.702 22.755C130.751 23.2255 129.635 23.4607 128.354 23.4607C126.823 23.4607 125.441 23.0954 124.21 22.3647C122.979 21.6239 121.973 20.5529 121.192 19.1516C120.422 17.7502 120.036 16.1537 120.036 14.362C120.036 12.6303 120.411 11.0638 121.162 9.66242C121.923 8.26107 122.969 7.18003 124.3 6.4193C125.642 5.64855 127.038 5.26318 128.489 5.26318C129.48 5.26318 130.361 5.41833 131.132 5.72863C131.903 6.03893 132.558 6.41429 133.099 6.85472C133.649 7.28513 134.03 7.6655 134.24 7.99582H134.3V5.83373H138.053ZM134.18 14.3319C134.18 12.7404 133.699 11.4541 132.738 10.4732C131.787 9.49226 130.596 9.00179 129.165 9.00179C128.244 9.00179 127.393 9.23701 126.612 9.70747C125.842 10.1679 125.231 10.8386 124.781 11.7194C124.34 12.5902 124.12 13.5011 124.12 14.452C124.12 15.9435 124.611 17.1947 125.591 18.2057C126.582 19.2066 127.784 19.7071 129.195 19.7071C130.686 19.7071 131.888 19.1866 132.798 18.1456C133.719 17.1046 134.18 15.8334 134.18 14.3319Z" fill="#0E0C0F"/>
<path d="M114.074 22.9052V18.8213H118.158V22.9052H114.074Z" fill="#0E0C0F"/>
<path d="M104.779 23.4607C103.578 23.4607 102.422 23.2305 101.311 22.7701C100.2 22.3096 99.2441 21.679 98.4433 20.8782C97.6426 20.0674 97.017 19.1916 96.5665 18.2507C95.9759 17.0295 95.6807 15.7333 95.6807 14.362C95.6807 12.7804 96.081 11.274 96.8818 9.8426C97.6926 8.40121 98.8187 7.28013 100.26 6.47936C101.701 5.66857 103.208 5.26318 104.779 5.26318C106.361 5.26318 107.867 5.66357 109.299 6.46434C110.73 7.26511 111.841 8.37618 112.632 9.79755C113.423 11.2089 113.818 12.7404 113.818 14.392C113.818 15.5631 113.623 16.6642 113.233 17.6952C112.852 18.7161 112.327 19.607 111.656 20.3677C110.995 21.1285 110.305 21.719 109.584 22.1394C108.873 22.5598 108.103 22.8852 107.272 23.1154C106.441 23.3456 105.61 23.4607 104.779 23.4607ZM104.779 19.7071C106.211 19.7071 107.392 19.1816 108.323 18.1306C109.264 17.0796 109.734 15.8384 109.734 14.407C109.734 13.4461 109.504 12.5402 109.044 11.6894C108.583 10.8285 107.957 10.1679 107.167 9.70747C106.386 9.23701 105.595 9.00179 104.794 9.00179C104.004 9.00179 103.198 9.23201 102.377 9.69245C101.566 10.1529 100.926 10.7985 100.455 11.6293C99.9948 12.4601 99.7646 13.381 99.7646 14.392C99.7646 15.3829 99.9948 16.2938 100.455 17.1246C100.916 17.9554 101.536 18.596 102.317 19.0465C103.108 19.4869 103.929 19.7071 104.779 19.7071Z" fill="#0E0C0F"/>
<path d="M82.752 22.905V0.143066H86.8359V13.8663H86.8959L92.3462 5.83355H97.0457L90.9048 14.1966L97.8565 22.905H92.6915L86.8959 14.9173H86.8359V22.905H82.752Z" fill="#0E0C0F"/>
<path d="M76.4146 5.83373H80.3784V19.7672C80.3784 23.1504 79.3625 25.7629 77.3305 27.6047C75.6589 29.1062 73.6319 29.8569 71.2496 29.8569C69.6982 29.8569 68.3068 29.5766 67.0756 29.0161C65.8544 28.4655 64.8535 27.7498 64.0727 26.869C63.4822 26.1883 62.9517 25.2975 62.4812 24.1964H67.1657C67.7363 24.837 68.2968 25.2925 68.8473 25.5627C69.568 25.9231 70.3738 26.1033 71.2647 26.1033C72.1055 26.1033 72.8662 25.9381 73.5469 25.6078C74.2375 25.2875 74.7931 24.8871 75.2135 24.4066C75.6439 23.9262 75.9642 23.4057 76.1744 22.8451C76.3946 22.2846 76.5347 21.5989 76.5948 20.7881L76.5347 20.7281C75.2035 22.5498 73.3717 23.4607 71.0394 23.4607C69.548 23.4607 68.0966 23.0603 66.6852 22.2596C65.2839 21.4488 64.1878 20.3227 63.3971 18.8813C62.6063 17.4399 62.2109 15.8984 62.2109 14.2568C62.2109 12.8655 62.4562 11.6343 62.9466 10.5633C63.4471 9.49226 64.0577 8.6014 64.7784 7.89072C65.4991 7.17002 66.2899 6.59447 67.1507 6.16405C68.3619 5.56347 69.6281 5.26318 70.9494 5.26318C72.0504 5.26318 73.0714 5.4834 74.0123 5.92382C74.9532 6.36424 75.734 7.03489 76.3546 7.93576H76.4146V5.83373ZM76.2945 14.1968C76.2945 13.5261 76.1394 12.8255 75.8291 12.0948C75.5988 11.5542 75.2685 11.0538 74.8381 10.5933C74.4177 10.1329 73.9022 9.75251 73.2916 9.45222C72.691 9.15193 71.9904 9.00179 71.1896 9.00179C69.8383 9.00179 68.6822 9.50227 67.7212 10.5032C66.7703 11.4942 66.2949 12.7504 66.2949 14.2719C66.2949 15.2828 66.5251 16.2137 66.9855 17.0646C67.446 17.9054 68.0816 18.556 68.8924 19.0164C69.7032 19.4769 70.534 19.7071 71.3848 19.7071C72.1055 19.7071 72.7561 19.562 73.3367 19.2717C73.9272 18.9814 74.4377 18.601 74.8681 18.1306C75.3086 17.6601 75.6539 17.0896 75.9041 16.4189C76.1644 15.7383 76.2945 14.9976 76.2945 14.1968Z" fill="#0E0C0F"/>
<path d="M61.2482 16.2086H48.0054C48.4158 17.3597 49.0264 18.2306 49.8372 18.8211C50.658 19.4117 51.649 19.707 52.8101 19.707C53.7209 19.707 54.4817 19.5268 55.0923 19.1665C55.7029 18.7961 56.2184 18.2506 56.6388 17.5299H60.9479C60.6676 18.3106 60.3573 18.9613 60.017 19.4818C59.4865 20.2625 58.8459 20.9582 58.0952 21.5688C57.3545 22.1794 56.5437 22.6448 55.6628 22.9651C54.792 23.2954 53.766 23.4606 52.5849 23.4606C49.7321 23.4606 47.4449 22.3996 45.7232 20.2775C44.3719 18.5959 43.6963 16.619 43.6963 14.3468C43.6963 12.6652 44.0917 11.1087 44.8824 9.67731C45.6732 8.23592 46.7692 7.12485 48.1706 6.3441C49.582 5.55334 51.1184 5.15796 52.78 5.15796C54.3916 5.15796 55.873 5.53833 57.2243 6.29906C58.5756 7.04978 59.6266 8.11581 60.3774 9.49714C61.1281 10.8685 61.5034 12.3399 61.5034 13.9114C61.5034 14.6721 61.4184 15.4379 61.2482 16.2086ZM57.3144 12.9054C57.0642 11.6142 56.5287 10.6282 55.7079 9.94757C54.8871 9.25691 53.8711 8.91158 52.6599 8.91158C51.7591 8.91158 50.9683 9.11177 50.2876 9.51215C49.617 9.90253 49.0565 10.4481 48.606 11.1487C48.3157 11.6092 48.0755 12.1947 47.8853 12.9054H57.3144Z" fill="#0E0C0F"/>
<path d="M38.2598 22.905V0.143066H42.3437V22.905H38.2598Z" fill="#0E0C0F"/>
<defs>
<linearGradient id="paint0_linear_81_1051" x1="7.15781" y1="23.4874" x2="7.15781" y2="1.12402" gradientUnits="userSpaceOnUse">
<stop stop-color="#12F287"/>
<stop offset="1" stop-color="#8BF9C4"/>
</linearGradient>
<linearGradient id="paint1_linear_81_1051" x1="12.9232" y1="1.12418" x2="12.9232" y2="23.4875" gradientUnits="userSpaceOnUse">
<stop stop-color="#12F287"/>
<stop offset="1" stop-color="#8BF9C4"/>
</linearGradient>
<linearGradient id="paint2_linear_81_1051" x1="25.4266" y1="23.4874" x2="25.4266" y2="1.12402" gradientUnits="userSpaceOnUse">
<stop stop-color="#12F287"/>
<stop offset="1" stop-color="#8BF9C4"/>
</linearGradient>
</defs>
</svg>
